<?xml version="1.0" standalone="no"?>
<!DOCTYPE svg PUBLIC "-//W3C//DTD SVG 1.1//EN" "http://www.w3.org/Graphics/SVG/1.1/DTD/svg11.dtd" >
<svg xmlns="http://www.w3.org/2000/svg">
<metadata>Generated by IcoMoon</metadata>
<defs>
<font id="icomoon" horiz-adv-x="1024">
<font-face units-per-em="1024" ascent="960" descent="-64" />
<missing-glyph horiz-adv-x="1024" />
<glyph unicode="&#x20;" horiz-adv-x="512" d="" />
<glyph unicode="&#xe900;" glyph-name="gold" d="M464 195.52c-10.050 35.169-41.906 60.481-79.674 60.481-0.114 0-0.229 0-0.343-0.001h-196.302c-0.097 0-0.211 0.001-0.326 0.001-37.768 0-69.625-25.312-79.531-59.897l-0.143-0.584-35.52-129.76c-1.209-4.172-1.904-8.965-1.904-13.92 0-28.625 23.2-51.831 51.823-51.84h327.521c28.624 0.009 51.824 23.215 51.824 51.84 0 4.955-0.695 9.748-1.993 14.286l0.090-0.366zM157.12 161.44c7.155 25.094 29.862 43.164 56.796 43.2h21.444c0.048 0 0.105 0 0.162 0 17.673 0 32-14.327 32-32 0-13.288-8.1-24.685-19.631-29.522l-0.211-0.079-48-19.68c-3.616-1.538-7.822-2.432-12.237-2.432-8.149 0-15.586 3.046-21.236 8.061l0.033-0.029c-6.441 6.184-10.443 14.866-10.443 24.483 0 2.665 0.307 5.258 0.889 7.746l-0.045-0.229zM913.6 195.52c-10.050 35.169-41.906 60.481-79.674 60.481-0.114 0-0.229 0-0.343-0.001h-195.662c-0.097 0-0.211 0.001-0.326 0.001-37.768 0-69.625-25.312-79.531-59.897l-0.143-0.584-36-129.76c-1.209-4.173-1.904-8.966-1.904-13.921 0-28.63 23.21-51.84 51.84-51.84 0.107 0 0.214 0 0.321 0.001h327.664c28.624 0.009 51.824 23.215 51.824 51.84 0 4.955-0.695 9.748-1.993 14.286l0.090-0.366zM608 161.44c7.155 25.094 29.862 43.164 56.796 43.2h21.444c0.048 0 0.105 0 0.162 0 17.673 0 32-14.327 32-32 0-13.288-8.1-24.685-19.631-29.522l-0.211-0.079-48-19.68c-3.453-1.389-7.457-2.195-11.649-2.195-17.673 0-32 14.327-32 32 0 2.943 0.397 5.793 1.141 8.5l-0.053-0.225zM334.4 483.52l-36-129.76c-1.209-4.172-1.904-8.965-1.904-13.92 0-28.569 23.109-51.74 51.654-51.84h327.69c28.624 0.009 51.824 23.215 51.824 51.84 0 4.955-0.695 9.748-1.993 14.286l0.090-0.366-36.16 129.76c-10.050 35.169-41.906 60.481-79.674 60.481-0.114 0-0.229 0-0.343-0.001h-195.662c-37.705-0.073-69.484-25.361-79.377-59.896l-0.143-0.584zM384 449.44c7.155 25.094 29.862 43.164 56.796 43.2h21.444c0.048 0 0.105 0 0.162 0 17.673 0 32-14.327 32-32 0-13.288-8.1-24.685-19.631-29.522l-0.211-0.079-48-19.68c-3.453-1.389-7.457-2.195-11.649-2.195-17.673 0-32 14.327-32 32 0 2.943 0.397 5.793 1.141 8.5l-0.053-0.225zM69.6 680.8c-3.246-4.058-5.209-9.265-5.209-14.93 0-6.677 2.727-12.717 7.127-17.068l0.002-0.002c4.353-4.403 10.393-7.129 17.070-7.129 5.666 0 10.873 1.963 14.978 5.246l-0.048-0.037 40.48 31.52c13.108 10.261 29.831 16.454 48 16.454s34.892-6.193 48.172-16.584l-0.172 0.13 40.16-32c3.961-2.997 8.97-4.8 14.4-4.8 13.255 0 24 10.745 24 24 0 5.43-1.803 10.439-4.844 14.46l0.044-0.060-32 40.16c-10.261 13.108-16.454 29.831-16.454 48s6.193 34.892 16.584 48.172l-0.13-0.172 32 40.16c3.246 4.058 5.209 9.265 5.209 14.93 0 6.677-2.727 12.717-7.127 17.068l-0.002 0.002c-4.353 4.403-10.393 7.129-17.070 7.129-5.666 0-10.873-1.963-14.978-5.246l0.048 0.037-39.84-30.56c-13.108-10.261-29.831-16.454-48-16.454s-34.892 6.193-48.172 16.584l0.172-0.13-40.16 32c-3.961 2.997-8.97 4.8-14.4 4.8-13.255 0-24-10.745-24-24 0-5.43 1.803-10.439 4.844-14.46l-0.044 0.060 32-40.16c10.261-13.108 16.454-29.831 16.454-48s-6.193-34.892-16.584-48.172l0.13 0.172zM387.36 626.24c-2.907-2.907-4.705-6.924-4.705-11.36 0-8.873 7.193-16.065 16.065-16.065 4.436 0 8.453 1.798 11.36 4.705v0l27.040 20.48c8.774 6.74 19.913 10.802 32 10.802s23.226-4.062 32.125-10.894l-0.125 0.092 27.040-21.12c2.715-2.193 6.209-3.521 10.013-3.521 4.475 0 8.521 1.837 11.424 4.798l0.003 0.003c2.964 2.906 4.801 6.952 4.801 11.427 0 3.804-1.327 7.298-3.544 10.044l-21.096 27.010c-6.74 8.774-10.802 19.913-10.802 32s4.062 23.226 10.894 32.125l-0.092-0.125 21.12 27.040c3.328 3.008 5.41 7.341 5.41 12.16 0 9.041-7.329 16.37-16.37 16.37-4.222 0-8.071-1.598-10.974-4.223l0.014 0.013-27.040-21.12c-8.774-6.74-19.913-10.802-32-10.802s-23.226 4.062-32.125 10.894l0.125-0.092-27.84 21.12c-2.715 2.193-6.209 3.521-10.013 3.521-4.475 0-8.521-1.837-11.424-4.798l-0.003-0.003c-2.964-2.906-4.801-6.952-4.801-11.427 0-3.804 1.327-7.298 3.544-10.044l21.096-27.010c6.74-8.774 10.802-19.913 10.802-32s-4.062-23.226-10.894-32.125l0.092 0.125zM129.6 466.88c-1.6-2.058-2.566-4.679-2.566-7.526 0-6.804 5.516-12.32 12.32-12.32 2.847 0 5.468 0.965 7.554 2.587l-0.028-0.021 20.48 16c6.705 5.255 15.262 8.428 24.56 8.428s17.855-3.172 24.647-8.494l-0.087 0.066 20.48-16c2.042-1.56 4.631-2.5 7.44-2.5 3.328 0 6.347 1.319 8.564 3.463l-0.003-0.003c2.141 2.213 3.46 5.233 3.46 8.56 0 2.808-0.94 5.397-2.522 7.469l0.022-0.030-16 20.48c-5.255 6.705-8.428 15.262-8.428 24.56s3.172 17.855 8.494 24.647l-0.066-0.087 16 20.48c1.6 2.058 2.566 4.679 2.566 7.526 0 6.804-5.516 12.32-12.32 12.32-2.847 0-5.468-0.965-7.554-2.587l0.028 0.021-20.48-16c-6.705-5.255-15.262-8.428-24.56-8.428s-17.855 3.172-24.647 8.494l0.087-0.066-20.48 16c-2.042 1.56-4.631 2.5-7.44 2.5-3.328 0-6.347-1.319-8.564-3.463l0.003 0.003c-2.141-2.213-3.46-5.233-3.46-8.56 0-2.808 0.94-5.397 2.522-7.469l-0.022 0.030 16-20.48c5.255-6.705 8.428-15.262 8.428-24.56s-3.172-17.855-8.494-24.647l0.066 0.087z" />
<glyph unicode="&#xe901;" glyph-name="credit-card-back-wallet" d="M864 320h-704c-0.139-0.002-0.302-0.003-0.466-0.003-17.673 0-32 14.327-32 32 0 1.923 0.17 3.807 0.495 5.637l-0.028-0.193c3.186 15.073 16.245 26.269 31.969 26.56h0.031v64c-54.072-5.237-96-50.449-96-105.454 0-0.051 0-0.102 0-0.153v0.008-266.88c0-41.709 33.811-75.52 75.52-75.52h768c29.003 0.091 52.48 23.624 52.48 52.64 0 0 0 0 0 0v0 171.36c0 53.019-42.981 96-96 96v0zM929.28 410.56c0.297 1.637 0.466 3.52 0.466 5.443 0 17.673-14.327 32-32 32-0.164 0-0.328-0.001-0.491-0.004h-33.255v-64h32c0.242-0.006 0.528-0.010 0.814-0.010 15.973 0 29.306 11.308 32.429 26.355l0.037 0.215zM832.8 384v410.72c0 55.935-45.345 101.28-101.28 101.28v0h-11.52c-8.837 0-16-7.163-16-16v0-528h128zM352.8 384c17.673 0 32-14.327 32-32v0h64c0.148 15.757 11.331 28.86 26.186 31.963l0.214 0.037c1.637 0.297 3.52 0.466 5.443 0.466 17.673 0 32-14.327 32-32 0-0.164-0.001-0.328-0.004-0.491v0.025h64v524.32c0 0 0 0 0 0.001 0 10.813-8.72 19.589-19.511 19.679h-263.049c-55.935 0-101.28-45.345-101.28-101.28v0-442.72h128c0 17.673 14.327 32 32 32v0zM335.040 722.080c14.068 22.682 36.764 38.876 63.394 44.062l0.606 0.098c5.34 1.054 11.48 1.657 17.76 1.657 52.983 0 95.941-42.922 96-95.892v-0.006c-0.042-9.544-1.501-18.732-4.177-27.385l0.177 0.665c-2.347-8.113-5.399-15.173-9.206-21.74l0.246 0.46c8.197-13.843 13.040-30.51 13.040-48.308 0-53.019-42.981-96-96-96s-96 42.981-96 96c0 17.798 4.843 34.465 13.284 48.755l-0.244-0.447c-3.616 6.108-6.719 13.165-8.945 20.6l-0.175 0.68c-2.48 8.069-3.909 17.344-3.909 26.953 0 18.453 5.268 35.675 14.381 50.245l-0.232-0.398z" />
<glyph unicode="&#xe902;" glyph-name="bar-chart-rise" d="M329.44 457.76c5.792-5.798 13.797-9.385 22.64-9.385s16.848 3.587 22.64 9.385v0l331.52 331.52c4.808-11.976 16.322-20.278 29.776-20.278 17.321 0 31.427 13.761 31.983 30.947l0.001 0.051v52.48c0 24.035-19.485 43.52-43.52 43.52v0h-52.48c-17.049-0.784-30.574-14.797-30.574-31.968 0-13.171 7.957-24.483 19.326-29.392l0.208-0.080-331.52-331.68c-5.751-5.784-9.305-13.757-9.305-22.56s3.555-16.776 9.307-22.562l-0.002 0.002zM282.72 365.76l4.16 4.16c5.794 5.794 9.378 13.799 9.378 22.64 0 17.683-14.335 32.018-32.018 32.018-8.841 0-16.846-3.584-22.64-9.378v0l-4.16-4.16c-5.794-5.794-9.378-13.799-9.378-22.64 0-17.683 14.335-32.018 32.018-32.018 8.841 0 16.846 3.584 22.64 9.378v0zM176 272c8.821 0.038 16.793 3.64 22.558 9.438l4.162 4.162c5.794 5.794 9.378 13.799 9.378 22.64 0 17.683-14.335 32.018-32.018 32.018-8.841 0-16.846-3.584-22.64-9.378v0l-4.16-4.16c-5.847-5.8-9.466-13.838-9.466-22.721 0-17.673 14.327-32 32-32 0.065 0 0.131 0 0.196 0.001h-0.010zM72.64 246.24l-4.16-4.16c-5.794-5.794-9.378-13.799-9.378-22.64 0-17.683 14.335-32.018 32.018-32.018 8.841 0 16.846 3.584 22.64 9.378l4.16 4.16c5.794 5.794 9.378 13.799 9.378 22.64 0 17.683-14.335 32.018-32.018 32.018-8.841 0-16.846-3.584-22.64-9.378v0zM81.76 0h220.48c9.809 0 17.76 7.951 17.76 17.76v0 0c-0.052 54.482-44.23 98.629-98.72 98.629-27.238 0-51.9-11.031-69.761-28.87l-82.239-82.239c3.186-3.225 7.594-5.236 12.472-5.28h0.008zM421.44 357.44v0c-23.12-23.145-37.423-55.1-37.44-90.397v-249.283c0-9.809 7.951-17.76 17.76-17.76v0h220.48c9.809 0 17.76 7.951 17.76 17.76v0 249.28c-0.034 70.667-57.328 127.941-128 127.941-35.371 0-67.391-14.347-90.559-37.539l-0.001-0.001zM960 587.040c0 0.030 0 0.065 0 0.101 0 70.692-57.308 128-128 128-35.371 0-67.392-14.347-90.559-37.54l-0.001-0.001c-23.133-23.158-37.44-55.138-37.44-90.459 0-0.035 0-0.071 0-0.106v0.005-557.92c0-16.083 13.037-29.12 29.12-29.12v0h209.12c9.809 0 17.76 7.951 17.76 17.76v0z" />
<glyph unicode="&#xe903;" glyph-name="multiple-credit-card-front" d="M860.16 640h-693.44c-55.899-0.091-101.189-45.381-101.28-101.271v-437.449c0.091-55.899 45.381-101.189 101.271-101.28h693.449c55.899 0.091 101.189 45.381 101.28 101.271v437.449c-0.091 55.899-45.381 101.189-101.271 101.28h-0.009zM248 137.44c-2.896-2.937-6.35-5.314-10.192-6.961l-0.208-0.079c-3.595-1.518-7.774-2.4-12.159-2.4 0 0-0.001 0-0.001 0v0c-17.673 0-32 14.327-32 32v0c-0.113 0.936-0.177 2.021-0.177 3.12s0.064 2.184 0.19 3.249l-0.012-0.129c0.383 2.285 0.995 4.328 1.827 6.253l-0.067-0.173c0.867 2.078 1.887 3.868 3.092 5.514l-0.052-0.074c1.158 1.808 2.424 3.379 3.841 4.801l-0.001-0.001c5.891 5.577 13.865 9.006 22.64 9.006s16.749-3.429 22.655-9.020l-0.015 0.014c6.036-5.681 9.861-13.654 10.079-22.521l0.001-0.039c-0.038-8.821-3.64-16.793-9.438-22.558l-0.002-0.002zM481.44 128h-128c-17.673 0-32 14.327-32 32s14.327 32 32 32v0h128c17.673 0 32-14.327 32-32s-14.327-32-32-32v0zM833.44 430.88c-0.091-25.911-21.117-46.88-47.040-46.88 0 0 0 0 0 0h-98.4c-25.855 0.091-46.789 21.025-46.88 46.871v34.249c0.091 25.855 21.025 46.789 46.871 46.88h98.249c25.855-0.091 46.789-21.025 46.88-46.871v-0.009zM128 737.76v-33.76h768v33.76c0 16.701-13.539 30.24-30.24 30.24v0h-707.52c-16.701 0-30.24-13.539-30.24-30.24v0zM790.88 896h-557.76c-22.71 0-41.12-18.41-41.12-41.12v-22.88h640v22.88c0 22.71-18.41 41.12-41.12 41.12v0z" />
<glyph unicode="&#xe904;" glyph-name="safe-mechanical" d="M896 216.8v590.4c0 49.043-39.757 88.8-88.8 88.8v0h-590.4c-49.043 0-88.8-39.757-88.8-88.8v0-590.4c0-49.043 39.757-88.8 88.8-88.8h590.4c49.043 0 88.8 39.757 88.8 88.8v0zM608 499.84c0-10.957-8.883-19.84-19.84-19.84v0c-0.035 0-0.077 0-0.119 0-8.666 0-16.013-5.647-18.562-13.462l-0.039-0.138c-3.525-11.664-7.819-21.737-13.054-31.218l0.414 0.818c-1.506-2.703-2.392-5.93-2.392-9.363 0-5.328 2.135-10.157 5.595-13.679l-0.003 0.003c3.573-3.587 5.782-8.536 5.782-14s-2.209-10.413-5.783-14.001l0.001 0.001-16.8-16.96c-3.587-3.573-8.536-5.782-14-5.782s-10.413 2.209-14.001 5.783l0.001-0.001c-3.54 3.582-8.454 5.8-13.885 5.8-3.35 0-6.504-0.844-9.259-2.331l0.104 0.051c-8.663-4.821-18.736-9.115-29.275-12.343l-1.125-0.297c-8.038-2.537-13.764-9.926-13.764-18.652 0-0.136 0.001-0.273 0.004-0.408v0.020c0-10.957-8.883-19.84-19.84-19.84v0h-24.32c-10.957 0-19.84 8.883-19.84 19.84v0c0 0.035 0 0.077 0 0.119 0 8.666-5.647 16.013-13.462 18.562l-0.138 0.039c-11.664 3.525-21.737 7.819-31.218 13.054l0.818-0.414c-2.651 1.436-5.805 2.28-9.155 2.28-5.431 0-10.345-2.218-13.883-5.798l-0.002-0.002c-3.587-3.573-8.536-5.782-14-5.782s-10.413 2.209-14.001 5.783l0.001-0.001-16.96 17.12c-3.573 3.587-5.782 8.536-5.782 14s2.209 10.413 5.783 14.001l-0.001-0.001c3.582 3.54 5.8 8.454 5.8 13.885 0 3.35-0.844 6.504-2.331 9.259l0.051-0.104c-4.821 8.663-9.115 18.736-12.343 29.275l-0.297 1.125c-2.537 8.038-9.926 13.764-18.652 13.764-0.136 0-0.273-0.001-0.408-0.004h0.020c-10.957 0-19.84 8.883-19.84 19.84v0 24.32c0 10.957 8.883 19.84 19.84 19.84v0c0.035 0 0.077 0 0.119 0 8.666 0 16.013 5.647 18.562 13.462l0.039 0.138c3.525 11.664 7.819 21.737 13.054 31.218l-0.414-0.818c1.506 2.703 2.392 5.93 2.392 9.363 0 5.328-2.135 10.157-5.595 13.679l0.003-0.003c-3.573 3.587-5.782 8.536-5.782 14s2.209 10.413 5.783 14.001l-0.001-0.001 16.8 16.96c3.587 3.573 8.536 5.782 14 5.782s10.413-2.209 14.001-5.783l-0.001 0.001c3.54-3.582 8.454-5.8 13.885-5.8 3.35 0 6.504 0.844 9.259 2.331l-0.104-0.051c8.663 4.821 18.736 9.115 29.275 12.343l1.125 0.297c8.038 2.537 13.764 9.926 13.764 18.652 0 0.136-0.001 0.273-0.004 0.408v-0.020c0 10.957 8.883 19.84 19.84 19.84v0h24.32c10.957 0 19.84-8.883 19.84-19.84v0c0-0.035 0-0.077 0-0.119 0-8.666 5.647-16.013 13.462-18.562l0.138-0.039c11.664-3.525 21.737-7.819 31.218-13.054l-0.818 0.414c2.703-1.506 5.93-2.392 9.363-2.392 5.328 0 10.157 2.135 13.679 5.595l-0.003-0.003c3.587 3.573 8.536 5.782 14 5.782s10.413-2.209 14.001-5.783l-0.001 0.001 16.96-16.8c3.573-3.587 5.782-8.536 5.782-14s-2.209-10.413-5.783-14.001l0.001 0.001c-3.582-3.54-5.8-8.454-5.8-13.885 0-3.35 0.844-6.504 2.331-9.259l-0.051 0.104c4.821-8.663 9.115-18.736 12.343-29.275l0.297-1.125c2.588-7.953 9.935-13.6 18.601-13.6 0.042 0 0.084 0 0.126 0h-0.006c0.095 0.002 0.208 0.003 0.321 0.003 10.957 0 19.84-8.883 19.84-19.84 0-0.057 0-0.114-0.001-0.171v0.009zM742.080 474.080c-0.047 0-0.104 0-0.16 0-21.031 0-38.080 17.049-38.080 38.080s17.049 38.080 38.080 38.080c21.031 0 38.080-17.049 38.080-38.080 0-0.056 0-0.112 0-0.168v0.009c0 0 0 0 0 0 0-20.975-16.958-37.989-37.911-38.080h-0.009zM448 512c0-17.673-14.327-32-32-32s-32 14.327-32 32c0 17.673 14.327 32 32 32s32-14.327 32-32zM338.4 0c25.184 0 45.6 20.416 45.6 45.6v0c0 10.162-8.238 18.4-18.4 18.4v0h-155.2c-10.162 0-18.4-8.238-18.4-18.4v0c0-25.184 20.416-45.6 45.6-45.6v0zM832 45.6c0 10.162-8.238 18.4-18.4 18.4v0h-155.2c-10.162 0-18.4-8.238-18.4-18.4v0c0-25.184 20.416-45.6 45.6-45.6v0h100.96c25.115 0.091 45.44 20.472 45.44 45.6 0 0 0 0 0 0v0z" />
<glyph unicode="&#xe905;" glyph-name="exchange-euro" d="M192 784c-17.673 0-32-14.327-32-32v0-80c0-17.673 14.327-32 32-32v0h80c17.673 0 32 14.327 32 32s-14.327 32-32 32v0 0c62.798 59.021 147.581 95.284 240.833 95.284 97.055 0 184.937-39.28 248.613-102.81l-0.007 0.007c5.794-5.794 13.799-9.378 22.64-9.378 17.683 0 32.018 14.335 32.018 32.018 0 8.841-3.584 16.846-9.378 22.64v0c-75.319 75.51-179.474 122.227-294.539 122.227-111.933 0-213.541-44.208-288.317-116.117l0.136 0.13v4c0 17.673-14.327 32-32 32v0zM832 112c17.673 0 32 14.327 32 32v0 80c0 17.673-14.327 32-32 32v0h-80c-17.673 0-32-14.327-32-32s14.327-32 32-32v0 0c-62.858-59.301-147.837-95.749-241.328-95.749-97.048 0-184.923 39.274-248.599 102.796l0.007-0.007c-5.794 5.794-13.799 9.378-22.64 9.378-17.683 0-32.018-14.335-32.018-32.018 0-8.841 3.584-16.846 9.378-22.64v0c75.318-75.504 179.469-122.218 294.53-122.218 112.172 0 213.975 44.397 288.795 116.577l-0.125-0.12v-4c0-17.673 14.327-32 32-32v0zM736 448c0 123.712-100.288 224-224 224s-224-100.288-224-224c0-123.712 100.288-224 224-224v0c123.712 0 224 100.288 224 224v0zM420.16 416h-4.16c-17.673 0-32 14.327-32 32s14.327 32 32 32v0h4.16c14.711 55.616 64.558 95.954 123.835 96h0.005c17.673 0 32-14.327 32-32s-14.327-32-32-32v0c-23.415-0.146-43.832-12.844-54.876-31.698l-0.164-0.302h23.040c17.673 0 32-14.327 32-32s-14.327-32-32-32v0h-23.040c11.208-19.156 31.625-31.854 55.019-32h0.021c17.673 0 32-14.327 32-32s-14.327-32-32-32v0c-59.282 0.046-109.129 40.384-123.639 95.107l-0.201 0.893z" />
<glyph unicode="&#xe906;" glyph-name="pie-chart-euro" d="M452.16 891.84c-219.44-31.392-386.267-218.077-386.267-443.726 0-247.424 200.576-448 448-448 225.599 0 412.251 166.753 443.424 383.726l0.283 2.401c0.276 2.066 0.433 4.455 0.433 6.881 0 30.309-24.571 54.88-54.88 54.88-0.096 0-0.192 0-0.288-0.001h-335.985c-29.249 0-52.96 23.711-52.96 52.96v0 336c0.001 0.129 0.002 0.281 0.002 0.433 0 30.309-24.571 54.88-54.88 54.88-2.426 0-4.815-0.157-7.158-0.463l0.276 0.029zM384 352c17.673 0 32-14.327 32-32s-14.327-32-32-32v0h-23.040c11.208-19.156 31.625-31.854 55.019-32h0.021c17.673 0 32-14.327 32-32s-14.327-32-32-32v0c-59.282 0.046-109.129 40.384-123.639 95.107l-0.201 0.893h-4.16c-17.673 0-32 14.327-32 32s14.327 32 32 32v0h4.16c14.711 55.616 64.558 95.954 123.835 96h0.005c17.673 0 32-14.327 32-32s-14.327-32-32-32v0c-23.415-0.146-43.832-12.844-54.876-31.698l-0.164-0.302zM625.92 512c8.837 0 16 7.163 16 16v0 80c0 17.673-14.327 32-32 32s-32-14.327-32-32v0-80c0-8.837 7.163-16 16-16v0zM753.92 512c8.837 0 16 7.163 16 16v0 176c0 17.673-14.327 32-32 32s-32-14.327-32-32v0-176c0-8.837 7.163-16 16-16v0zM881.92 512c8.837 0 16 7.163 16 16v0 272c0 17.673-14.327 32-32 32s-32-14.327-32-32v0-272c0-8.837 7.163-16 16-16v0z" />
<glyph unicode="&#xe907;" glyph-name="credit-cards-front" d="M858.72 640h-693.44c-55.899-0.091-101.189-45.381-101.28-101.271v-437.449c0.091-55.899 45.381-101.189 101.271-101.28h693.449c55.899 0.091 101.189 45.381 101.28 101.271v437.449c-0.091 55.899-45.381 101.189-101.271 101.28h-0.009zM246.56 137.44c-2.896-2.937-6.35-5.314-10.192-6.961l-0.208-0.079c-3.595-1.518-7.774-2.4-12.159-2.4 0 0-0.001 0-0.001 0v0c-17.673 0-32 14.327-32 32v0c-0.113 0.936-0.177 2.021-0.177 3.12s0.064 2.184 0.19 3.249l-0.012-0.129c0.383 2.285 0.995 4.328 1.827 6.253l-0.067-0.173c0.867 2.078 1.887 3.868 3.092 5.514l-0.052-0.074c1.158 1.808 2.424 3.379 3.841 4.801l-0.001-0.001c5.891 5.577 13.865 9.006 22.64 9.006s16.749-3.429 22.655-9.020l-0.015 0.014c6.036-5.681 9.861-13.654 10.079-22.521l0.001-0.039c-0.038-8.821-3.64-16.793-9.438-22.558l-0.002-0.002zM480 128h-128c-17.673 0-32 14.327-32 32s14.327 32 32 32v0h128c17.673 0 32-14.327 32-32s-14.327-32-32-32v0zM832 430.88c-0.091-25.855-21.025-46.789-46.871-46.88h-98.249c-25.855 0.091-46.789 21.025-46.88 46.871v34.249c0.091 25.855 21.025 46.789 46.871 46.88h98.249c25.855-0.091 46.789-21.025 46.88-46.871v-0.009zM434.88 704h406.4l-85.28 147.68c-15.699 26.474-44.128 43.944-76.638 43.944-16.381 0-31.726-4.435-44.899-12.171l0.417 0.227-312.16-179.68z" />
<glyph unicode="&#xe908;" glyph-name="credit-card-back" d="M80 638.72h864c8.837 0 16 7.163 16 16v0 14.080c-0.273 54.845-44.796 99.2-99.679 99.2 0 0-0.001 0-0.001 0h-696.64c-55.052 0-99.68-44.628-99.68-99.68v0-14.080c0.267-8.628 7.325-15.52 15.993-15.52 0.003 0 0.005 0 0.008 0v0zM163.68 128h696.64c55.052 0 99.68 44.628 99.68 99.68v0 266.080c0 9.367-7.593 16.96-16.96 16.96v0h-862.080c-9.367 0-16.96-7.593-16.96-16.96v0-266.080c0-55.052 44.628-99.68 99.68-99.68v0zM720 416h108.96c0.242 0.006 0.528 0.010 0.814 0.010 15.973 0 29.306-11.308 32.429-26.355l0.037-0.215c0.297-1.637 0.466-3.52 0.466-5.443 0-17.673-14.327-32-32-32-0.164 0-0.328 0.001-0.491 0.004h-108.295c-0.433-0.020-0.94-0.032-1.45-0.032-15.981 0-29.319 11.319-32.433 26.377l-0.037 0.214c-0.297 1.637-0.466 3.52-0.466 5.443 0 17.673 14.327 32 32 32 0.164 0 0.328-0.001 0.491-0.004h-0.025zM584.8 406.56l2.4 2.080 2.56 1.92c1.605 1.054 3.448 2.021 5.385 2.803l0.215 0.077c1.663 0.734 3.639 1.394 5.684 1.873l0.236 0.047h3.2c0.935 0.097 2.021 0.152 3.12 0.152s2.185-0.055 3.255-0.163l-0.135 0.011h3.040c2.283-0.528 4.258-1.188 6.148-2.008l-0.228 0.088c2.154-0.866 3.997-1.832 5.727-2.957l-0.127 0.077 2.56-1.92 2.4-2.080c5.918-5.724 9.631-13.696 9.76-22.536v-0.024c0-1.12 0-2.080 0-3.2s0-2.080 0-3.040c-0.446-2.258-1.054-4.241-1.838-6.132l0.078 0.212c-0.859-2.152-1.826-3.995-2.955-5.722l0.075 0.122-1.92-2.56-2.080-2.4-2.4-2.080-2.56-1.92c-1.605-1.054-3.448-2.021-5.385-2.803l-0.215-0.077c-1.662-0.732-3.637-1.392-5.681-1.873l-0.239-0.047h-12.48c-2.281 0.526-4.257 1.186-6.145 2.007l0.225-0.087c-2.152 0.859-3.995 1.826-5.722 2.955l0.122-0.075-2.56 1.92-2.4 2.080-2.080 2.4-1.92 2.56c-1.043 1.601-2.009 3.444-2.799 5.377l-0.081 0.223c-0.706 1.679-1.314 3.662-1.726 5.716l-0.034 0.204c0 0.96 0 2.080 0 3.040s0 2.080 0 3.2c-0.034 0.556-0.054 1.205-0.054 1.859 0 7.989 2.928 15.294 7.769 20.902l-0.035-0.041zM608 289.28h221.12c0.242 0.006 0.528 0.010 0.814 0.010 15.973 0 29.306-11.308 32.429-26.355l0.037-0.215c0.297-1.637 0.466-3.52 0.466-5.443 0-17.673-14.327-32-32-32-0.164 0-0.328 0.001-0.491 0.004h-221.095c-0.242-0.006-0.528-0.010-0.814-0.010-15.973 0-29.306 11.308-32.429 26.355l-0.037 0.215c-0.297 1.637-0.466 3.52-0.466 5.443 0 17.673 14.327 32 32 32 0.164 0 0.328-0.001 0.491-0.004h-0.025zM254.72 416c28.938-0.105 54.843-12.997 72.376-33.316l0.104-0.124c17.719 20.761 43.911 33.84 73.158 33.84 53.019 0 96-42.981 96-96s-42.981-96-96-96c-29.247 0-55.439 13.079-73.047 33.707l-0.111 0.133c-17.727-20.993-44.063-34.235-73.492-34.235-53.019 0-96 42.981-96 96s42.981 96 96 96c0.356 0 0.711-0.002 1.066-0.006h-0.054z" />
<glyph unicode="&#xe909;" glyph-name="credit-cards-back" d="M858.72 640h-693.44c-55.935 0-101.28-45.345-101.28-101.28v0-10.72c0-8.837 7.163-16 16-16v0h880v26.72c0 55.935-45.345 101.28-101.28 101.28v0zM940.32 384h-856.64c-10.869 0-19.68-8.811-19.68-19.68v0-263.040c0-55.935 45.345-101.28 101.28-101.28v0h693.44c55.935 0 101.28 45.345 101.28 101.28v0 263.040c0 10.869-8.811 19.68-19.68 19.68v0zM608 320h94.24c0.385 0.016 0.837 0.025 1.291 0.025 15.979 0 29.315-11.316 32.432-26.371l0.037-0.214c0.297-1.637 0.466-3.52 0.466-5.443 0-17.673-14.327-32-32-32-0.164 0-0.328 0.001-0.491 0.004h-94.215c-0.385-0.016-0.837-0.025-1.291-0.025-15.979 0-29.315 11.316-32.432 26.371l-0.037 0.214c-0.297 1.637-0.466 3.52-0.466 5.443 0 17.673 14.327 32 32 32 0.164 0 0.328-0.001 0.491-0.004h-0.025zM477.92 203.52c-9.805-43.418-48.050-75.357-93.754-75.357-17.74 0-34.357 4.812-48.615 13.202l0.45-0.245c-13.771-8.088-30.331-12.865-48.006-12.865-46.246 0-84.855 32.701-93.964 76.241l-0.109 0.624c-1.192 5.676-1.875 12.198-1.875 18.88 0 53.003 42.955 95.974 95.952 96h0.002c17.704-0.035 34.262-4.906 48.435-13.36l-0.435 0.24c13.799 8.13 30.401 12.933 48.124 12.933 53.019 0 96-42.981 96-96 0-7.247-0.803-14.306-2.325-21.094l0.121 0.64zM630.72 137.44c-5.797-5.831-13.825-9.44-22.695-9.44-0.009 0-0.018 0-0.027 0h0.001c-17.615 0.076-31.866 14.374-31.866 32 0 8.803 3.555 16.776 9.307 22.562l-0.002-0.002c5.891 5.577 13.865 9.006 22.64 9.006s16.749-3.429 22.655-9.020l-0.015 0.014c5.751-5.784 9.305-13.757 9.305-22.56s-3.555-16.776-9.307-22.562l0.002 0.002zM800 128h-94.24c-0.385-0.016-0.837-0.025-1.291-0.025-15.979 0-29.315 11.316-32.432 26.371l-0.037 0.214c-0.297 1.637-0.466 3.52-0.466 5.443 0 17.673 14.327 32 32 32 0.164 0 0.328-0.001 0.491-0.004h94.215c0.385 0.016 0.837 0.025 1.291 0.025 15.979 0 29.315-11.316 32.432-26.371l0.037-0.214c0.297-1.637 0.466-3.52 0.466-5.443 0-17.673-14.327-32-32-32-0.164 0-0.328 0.001-0.491 0.004h0.025zM822.56 265.44c-1.395-1.524-2.972-2.847-4.706-3.944l-0.094-0.056c-1.571-1.158-3.362-2.178-5.269-2.977l-0.171-0.063c-1.751-0.762-3.793-1.374-5.92-1.737l-0.16-0.023c-1.741-0.409-3.74-0.644-5.794-0.644-0.157 0-0.313 0.001-0.469 0.004h0.023c-17.673 0-32 14.327-32 32v0c-0.113 0.936-0.177 2.021-0.177 3.12s0.064 2.184 0.19 3.249l-0.012-0.129c0.467 2.274 1.074 4.255 1.844 6.154l-0.084-0.234c0.903 2.146 1.921 3.987 3.108 5.703l-0.068-0.103c1.152 1.829 2.474 3.406 3.982 4.784l0.018 0.016c1.395 1.524 2.972 2.847 4.706 3.944l0.094 0.056c1.611 1.111 3.452 2.129 5.392 2.961l0.208 0.079c1.708 0.77 3.696 1.381 5.771 1.739l0.149 0.021c1.876 0.381 4.033 0.599 6.24 0.599s4.364-0.218 6.449-0.634l-0.209 0.035c2.295-0.404 4.336-1.015 6.269-1.831l-0.189 0.071c2.099-0.959 3.883-1.973 5.568-3.123l-0.128 0.083c1.828-1.153 3.405-2.476 4.784-3.983l0.016-0.017c6.036-5.681 9.861-13.654 10.079-22.521l0.001-0.039c-0.038-8.821-3.64-16.793-9.438-22.558l-0.002-0.002zM634.88 884.16l-312-180.16h518.4l-85.28 147.68c-15.652 26.676-44.191 44.304-76.847 44.304-16.296 0-31.567-4.39-44.694-12.051l0.422 0.227z" />
<glyph unicode="&#xe90a;" glyph-name="security-complete" d="M896 396.48v304c-0.229 44.31-26.833 82.351-64.904 99.244l-0.696 0.276-130.4 56.96c-55.406 24.714-120.062 39.106-188.080 39.106s-132.674-14.392-191.090-40.297l3.010 1.192-130.24-56.96c-38.863-17.212-65.505-55.403-65.6-99.828v-304.012c0.013-93.689 45.034-176.859 114.62-229.068l0.74-0.532 190.080-141.44c21.625-16.225 48.913-25.981 78.48-25.981s56.855 9.757 78.821 26.226l-0.341-0.245 190.080 141.44c70.428 52.742 115.52 135.984 115.52 229.756 0 0.057 0 0.115 0 0.172v-0.009zM450.56 828.48l2.72 1.28c3.638 1.559 7.872 2.466 12.318 2.466 17.673 0 32-14.327 32-32 0-12.919-7.656-24.050-18.678-29.104l-0.199-0.082-2.72-1.28c-3.638-1.559-7.872-2.466-12.318-2.466-17.673 0-32 14.327-32 32 0 12.919 7.656 24.050 18.678 29.104l0.199 0.082zM239.040 669.6c-17.626 0.063-31.89 14.365-31.89 32 0 13.001 7.753 24.191 18.888 29.199l0.202 0.081 128 56c3.638 1.559 7.872 2.466 12.318 2.466 17.673 0 32-14.327 32-32 0-12.919-7.656-24.050-18.678-29.104l-0.199-0.082-128-56c-3.699-1.618-8.011-2.56-12.542-2.56-0.035 0-0.069 0-0.104 0h0.005zM707.2 552.96l-186.4-186.56c-11.932-11.946-28.423-19.335-46.64-19.335s-34.708 7.389-46.639 19.334l-64.001 64.001c-5.794 5.794-9.378 13.799-9.378 22.64 0 17.683 14.335 32.018 32.018 32.018 8.841 0 16.846-3.584 22.64-9.378l64-64c0.373-0.287 0.846-0.46 1.36-0.46s0.987 0.173 1.365 0.464l-0.005-0.004 186.4 186.4c5.794 5.794 13.799 9.378 22.64 9.378 17.683 0 32.018-14.335 32.018-32.018 0-8.841-3.584-16.846-9.378-22.64v0z" />
<glyph unicode="&#xe90b;" glyph-name="safe" d="M763.2 765.92h-470.4c-2.651 0-4.8-2.149-4.8-4.8v0-41.12c0-8.837 7.163-16 16-16v0c8.837 0 16-7.163 16-16v0-96c0-8.837-7.163-16-16-16v0c-8.837 0-16-7.163-16-16v0-161.12c0-8.218 6.662-14.88 14.88-14.88v0c9.455 0 17.12-7.665 17.12-17.12v-93.76c0-9.455-7.665-17.12-17.12-17.12v0c-8.218 0-14.88-6.662-14.88-14.88v0-44.32c0-2.651 2.149-4.8 4.8-4.8h470.4c2.651 0 4.8 2.149 4.8 4.8v0 564.32c0 2.651-2.149 4.8-4.8 4.8v0zM686.72 448h-37.6c-0.066 0.001-0.143 0.001-0.221 0.001-7.596 0-14.089-4.727-16.697-11.399l-0.042-0.122c-18.341-49.69-65.295-84.48-120.374-84.48-70.692 0-128 57.308-128 128s57.308 128 128 128c55.080 0 102.034-34.79 120.087-83.594l0.287-0.886c2.65-6.795 9.142-11.521 16.739-11.521 0.078 0 0.156 0 0.233 0.001h35.828c0.242 0.006 0.528 0.010 0.814 0.010 15.973 0 29.306-11.308 32.429-26.355l0.037-0.215c0.296-1.636 0.466-3.518 0.466-5.44 0-17.668-14.319-31.992-31.985-32h-0.001zM768 66.24h1.76c0 0 0.001 0 0.001 0 69.552 0 125.966 56.246 126.239 125.734v576.026c0 70.692-57.308 128-128 128v0h-512c-70.692 0-128-57.308-128-128v0-576c0-69.72 56.52-126.24 126.24-126.24v0h1.76v-65.76h128v66.24h256v-66.24h128zM292.8 128c-37.997 0-68.8 30.803-68.8 68.8v0 44.32c0 8.218-6.662 14.88-14.88 14.88v0c-9.455 0-17.12 7.665-17.12 17.12v93.76c0 9.455 7.665 17.12 17.12 17.12v0c8.218 0 14.88 6.662 14.88 14.88v0 161.12c0 8.837-7.163 16-16 16v0c-8.837 0-16 7.163-16 16v0 96c0 8.837 7.163 16 16 16v0c8.837 0 16 7.163 16 16v0 41.12c0 37.997 30.803 68.8 68.8 68.8h470.4c37.997 0 68.8-30.803 68.8-68.8v-564.32c0-37.997-30.803-68.8-68.8-68.8v0zM494.72 541.76c-21.527-6.183-38.137-22.793-44.209-43.868l-0.111-0.452c-1.543-5.235-2.431-11.249-2.431-17.471 0-35.346 28.654-64 64-64 6.222 0 12.236 0.888 17.923 2.544l-0.452-0.113c21.527 6.183 38.137 22.793 44.209 43.868l0.111 0.452c1.543 5.235 2.431 11.249 2.431 17.471 0 35.346-28.654 64-64 64-6.222 0-12.236-0.888-17.923-2.544l0.452 0.113z" />
<glyph unicode="&#xe90c;" glyph-name="pie-chart-alt" d="M602.4 480h320c0.087-0.001 0.19-0.001 0.293-0.001 17.673 0 32 14.327 32 32 0 1.524-0.107 3.023-0.313 4.49l0.019-0.169c-30.609 193.097-181.028 343.625-371.524 374.063l-2.556 0.337c-1.298 0.187-2.797 0.293-4.321 0.293-17.673 0-32-14.327-32-32 0-0.103 0-0.206 0.001-0.309v0.016-320c-0.001-0.095-0.001-0.207-0.001-0.32 0-32.253 26.147-58.4 58.4-58.4 0 0 0.001 0 0.001 0v0zM848 629.76l4-7.84c2.261-4.274 3.588-9.343 3.588-14.722 0-17.673-14.327-32-32-32-12.921 0-24.053 7.658-29.106 18.683l-0.082 0.199-3.2 6.4c-1.764 3.843-2.792 8.338-2.792 13.072 0 17.673 14.327 32 32 32 11.698 0 21.929-6.277 27.511-15.646l0.081-0.147zM642.4 773.76c5.301 10.777 16.203 18.063 28.806 18.063 5.061 0 9.848-1.175 14.102-3.267l-0.188 0.084c40.999-20.028 75.914-45.995 105.264-77.25l0.176-0.19c5.373-5.715 8.674-13.432 8.674-21.92 0-17.692-14.342-32.034-32.034-32.034-9.204 0-17.501 3.882-23.344 10.097l-0.016 0.017c-24.218 25.983-52.884 47.44-84.847 63.235l-1.713 0.765c-10.354 5.44-17.295 16.12-17.295 28.421 0 5.086 1.187 9.896 3.298 14.166l-0.084-0.187zM480 66.24c9.614-0.856 20.798-1.344 32.096-1.344 193.534 0 353.628 143.172 380.145 329.378l0.239 2.046c0.121 0.865 0.19 1.865 0.19 2.88 0 12.060-9.74 21.846-21.783 21.92h-290.087c-53.019 0-96 42.981-96 96v0 289.6c0 0.009 0 0.019 0 0.030 0 12.106-9.814 21.92-21.92 21.92-1.016 0-2.015-0.069-2.994-0.203l0.114 0.013c-186.694-28.213-328.151-187.546-328.151-379.917 0-199.455 152.066-363.392 346.587-382.201l1.565-0.122z" />
<glyph unicode="&#xe90d;" glyph-name="pattern-lock" d="M622.080 512.96l176.96 176.96c-18.793 11.208-34.073 26.487-44.957 44.696l-0.323 0.584-176.8-177.12c18.715-11.184 33.937-26.405 44.797-44.538l0.323-0.582zM401.92 383.040l-176.96-176.96c18.793-11.208 34.073-26.487 44.957-44.696l0.323-0.584 176.8 177.12c-18.715 11.184-33.937 26.405-44.797 44.538l-0.323 0.582zM389.12 60.48c-3.23 10.577-5.090 22.734-5.090 35.325 0 10.172 1.214 20.061 3.505 29.53l-0.175-0.855h-102.72c2.116-8.614 3.33-18.503 3.33-28.675 0-12.591-1.86-24.748-5.32-36.211l0.23 0.886zM740.16 768c-2.674 9.598-4.211 20.62-4.211 32s1.537 22.402 4.415 32.868l-0.204-0.868h-104.32c2.674-9.598 4.211-20.62 4.211-32s-1.537-22.402-4.415-32.868l0.204 0.868zM256 800c0-53.019-42.981-96-96-96s-96 42.981-96 96c0 53.019 42.981 96 96 96s96-42.981 96-96zM512 704c53.019 0 96 42.981 96 96s-42.981 96-96 96c-53.019 0-96-42.981-96-96v0c0-53.019 42.981-96 96-96v0zM864 896c-52.972-0.062-95.89-43.019-95.89-96 0-11.471 2.012-22.471 5.702-32.668l-0.211 0.668c1.344-3.802 2.64-6.866 4.087-9.843l-0.247 0.563c15.8-32.622 48.655-54.72 86.672-54.72 53.019 0 96 42.981 96 96s-42.981 96-96 96c-0.039 0-0.078 0-0.118 0h0.006zM256 448c0-53.019-42.981-96-96-96s-96 42.981-96 96c0 53.019 42.981 96 96 96s96-42.981 96-96zM598.56 489.28c-15.846 32.494-48.635 54.486-86.56 54.486-53.019 0-96-42.981-96-96s42.981-96 96-96c53.019 0 96 42.981 96 96 0 0.082 0 0.165 0 0.247v-0.013c-0.038 15.016-3.517 29.21-9.69 41.848l0.25-0.568zM960 448c0-53.019-42.981-96-96-96s-96 42.981-96 96c0 53.019 42.981 96 96 96s96-42.981 96-96zM160 0c0.001 0 0.001 0 0.002 0 53.019 0 96 42.981 96 96 0 10.166-1.58 19.964-4.509 29.16l0.187-0.68c-1.616 5.048-3.35 9.283-5.368 13.354l0.248-0.554c-15.8 32.622-48.655 54.72-86.672 54.72-53.019 0-96-42.981-96-96s42.981-96 96-96c0.039 0 0.078 0 0.118 0h-0.006zM512 0c0.020 0 0.043 0 0.067 0 53.019 0 96 42.981 96 96s-42.981 96-96 96c-53.019 0-96-42.981-96-96 0-12.793 2.502-25.001 7.044-36.162l-0.231 0.642c14.504-35.718 48.92-60.451 89.116-60.48h0.004zM960 96c0-53.019-42.981-96-96-96s-96 42.981-96 96c0 53.019 42.981 96 96 96s96-42.981 96-96z" />
<glyph unicode="&#xe90e;" glyph-name="key" d="M64 172.16v-124.16c0-26.51 21.49-48 48-48v0h124c13.25 0.012 25.241 5.391 33.919 14.079l23.361 23.361c4.677 4.664 7.57 11.114 7.57 18.24s-2.893 13.576-7.569 18.239l-1.761 1.761c-3.224 3.24-5.217 7.707-5.217 12.64s1.993 9.4 5.218 12.641l15.999 15.999c2.866 2.736 6.756 4.419 11.040 4.419s8.174-1.683 11.046-4.425l-0.006 0.006c5.529-5.525 13.166-8.942 21.6-8.942s16.071 3.417 21.6 8.942l5.28 5.28c5.525 5.529 8.942 13.166 8.942 21.6s-3.417 16.071-8.942 21.6v0c-2.736 2.866-4.419 6.756-4.419 11.040s1.683 8.174 4.425 11.046l57.434 57.434c2.866 2.736 6.756 4.419 11.040 4.419s8.174-1.683 11.046-4.425l3.834-3.834c4.546-4.544 10.825-7.355 17.76-7.355s13.214 2.811 17.76 7.355l75.84 75.84c6.845 6.906 16.334 11.181 26.821 11.181 2.971 0 5.861-0.343 8.634-0.992l-0.255 0.050c19.23-4.577 41.308-7.201 63.999-7.201 159.058 0 288 128.942 288 288s-128.942 288-288 288c-159.058 0-288-128.942-288-288 0-22.691 2.624-44.77 7.586-65.948l-0.385 1.949c0.58-2.478 0.912-5.324 0.912-8.248 0-10.473-4.264-19.95-11.15-26.79l-302.722-302.882c-8.748-8.658-14.182-20.649-14.24-33.909v-0.011zM768 608c0-53.019-42.981-96-96-96s-96 42.981-96 96c0 53.019 42.981 96 96 96v0c53.019 0 96-42.981 96-96v0zM644.32 831.2c0.432 0.041 0.933 0.065 1.44 0.065 8.872 0 16.065-7.192 16.065-16.065 0-8.365-6.394-15.237-14.561-15.995l-0.063-0.005c-81.687-7.801-146.885-69.563-159.861-148.887l-0.139-1.033c-1.207-7.745-7.829-13.601-15.819-13.601-0.064 0-0.127 0-0.191 0.001h-2.39c-7.755 1.197-13.624 7.825-13.624 15.823 0 0.853 0.067 1.691 0.195 2.508l-0.012-0.091c15.385 95.001 92.42 168.054 188.106 177.214l0.854 0.066zM294.56 359.52c0.817 2.015 2.013 3.724 3.511 5.112l0.009 0.008c2.896 2.901 6.9 4.696 11.323 4.696 6.604 0 12.274-4.001 14.717-9.712l0.040-0.104c0.71-1.799 1.121-3.883 1.121-6.063 0-0.062 0-0.124-0.001-0.186v0.009c-0.019-4.371-1.788-8.325-4.641-11.201l0.001 0.001c-2.892-2.875-6.878-4.653-11.28-4.653s-8.388 1.777-11.281 4.653l0.001-0.001c-2.911 2.854-4.735 6.808-4.8 11.188v0.012c0.043 2.259 0.51 4.397 1.323 6.356l-0.043-0.116zM120.64 187.36l120 120c2.78 2.391 6.423 3.847 10.407 3.847 8.837 0 16-7.163 16-16 0-3.984-1.456-7.628-3.865-10.428l0.018 0.021-119.2-120.16c-2.78-2.391-6.423-3.847-10.407-3.847-8.837 0-16 7.163-16 16 0 3.984 1.456 7.628 3.865 10.428l-0.018-0.021z" />
<glyph unicode="&#xe90f;" glyph-name="fingerprint" d="M807.84 784c-5.439 4.409-12.444 7.079-20.073 7.079-17.673 0-32-14.327-32-32 0-9.063 3.768-17.246 9.822-23.069l0.010-0.010c80.042-70.647 130.294-173.444 130.4-287.981v-0.019c0-17.673 14.327-32 32-32s32 14.327 32 32v0c-0.131 133.652-58.768 253.583-151.675 335.581l-0.485 0.419zM800 0c17.673 0 32 14.327 32 32v0 416c0 0.129 0 0.283 0 0.436 0 100.104-46.126 189.434-118.284 247.896l-0.597 0.468c-5.455 4.448-12.493 7.142-20.16 7.142-17.686 0-32.022-14.337-32.022-32.022 0-10.018 4.601-18.962 11.804-24.834l0.058-0.046c58.259-47.132 95.2-118.621 95.2-198.738 0-0.106 0-0.213 0-0.319v0.017-416c0-17.673 14.327-32 32-32v0zM480 160c0-17.673 14.327-32 32-32v0c35.346 0 64 28.654 64 64v0 254.24c0.001 0.139 0.002 0.304 0.002 0.469 0 31.899-22.824 58.467-53.032 64.265l-0.41 0.066c-3.175 0.558-6.83 0.877-10.56 0.877-35.317 0-63.953-28.607-64-63.913v-0.005c0-17.673 14.327-32 32-32s32 14.327 32 32v0c0.11-0.31 0.174-0.668 0.174-1.040s-0.064-0.73-0.181-1.062l0.007 0.022v-253.92c-17.673 0-32-14.327-32-32v0zM320 162.56c0.091-89.743 72.817-162.469 162.551-162.56h60.169c89.743 0.091 162.469 72.817 162.56 162.551v189.449c0 17.673-14.327 32-32 32s-32-14.327-32-32v0-189.44c-0.091-54.397-44.163-98.469-98.551-98.56h-60.169c-54.397 0.091-98.469 44.163-98.56 98.551v61.449c0 17.673 14.327 32 32 32v0c17.673 0 32 14.327 32 32s-14.327 32-32 32v0c-53.019 0-96-42.981-96-96v0zM160 0c53.019 0 96 42.981 96 96v0 27.040c0 17.673-14.327 32-32 32s-32-14.327-32-32v0-27.040c0-17.673-14.327-32-32-32s-32 14.327-32 32v0 352c0 212.077 171.923 384 384 384v0c2.86 0.037 5.61 0.443 8.225 1.174l-0.225-0.054c2.39-0.677 5.14-1.083 7.979-1.12h27.061c17.673 0 32-14.327 32-32s-14.327-32-32-32v0h-27.040c-2.86-0.037-5.61-0.443-8.225-1.174l0.225 0.054c-2.39 0.677-5.14 1.083-7.979 1.12h-0.021c-176.731 0-320-143.269-320-320v0-32c0-17.673 14.327-32 32-32s32 14.327 32 32v0 32c0 141.385 114.615 256 256 256v0c2.86 0.037 5.61 0.443 8.225 1.174l-0.225-0.054c2.39-0.677 5.14-1.083 7.979-1.12h27.061c53.019 0 96 42.981 96 96s-42.981 96-96 96v0h-27.040c-2.86-0.037-5.61-0.443-8.225-1.174l0.225 0.054c-2.39 0.677-5.14 1.083-7.979 1.12h-0.021c-247.424 0-448-200.576-448-448v0-352c0-53.019 42.981-96 96-96v0zM320 416c0-17.673 14.327-32 32-32s32 14.327 32 32v0 27.040c0 0.8 0 1.6 0 2.56s0 1.6 0 2.56c0 70.692 57.308 128 128 128s128-57.308 128-128v0c0-17.673 14.327-32 32-32s32 14.327 32 32v0c0 106.039-85.961 192-192 192s-192-85.961-192-192v0c0-0.8 0-1.6 0-2.56s0-1.6 0-2.56zM224 352c-17.673 0-32-14.327-32-32v0-92.64c0-17.673 14.327-32 32-32s32 14.327 32 32v0 92.64c0 17.673-14.327 32-32 32v0zM960 320c0 17.673-14.327 32-32 32s-32-14.327-32-32v0-128c0-17.673 14.327-32 32-32s32 14.327 32 32v0zM928 128c-17.673 0-32-14.327-32-32v0-64c0-17.673 14.327-32 32-32s32 14.327 32 32v0 64c0 17.673-14.327 32-32 32v0z" />
<glyph unicode="&#xe910;" glyph-name="play" d="M733.44 518.24l-305.92 235.36c-11.134 8.588-25.283 13.764-40.64 13.764-36.882 0-66.791-29.854-66.88-66.715v-505.289c0.089-36.87 29.998-66.724 66.88-66.724 15.358 0 29.506 5.176 40.796 13.88l-0.156-0.116 305.92 235.36c21.113 16.366 34.572 41.731 34.572 70.24s-13.459 53.875-34.37 70.089l-0.202 0.151z" />
<glyph unicode="&#xe911;" glyph-name="pause" d="M312.8 768h78.4c31.37 0 56.8-25.43 56.8-56.8v-526.4c0-31.37-25.43-56.8-56.8-56.8h-78.4c-31.37 0-56.8 25.43-56.8 56.8v526.4c0 31.37 25.43 56.8 56.8 56.8zM632.8 768h78.4c31.37 0 56.8-25.43 56.8-56.8v-526.4c0-31.37-25.43-56.8-56.8-56.8h-78.4c-31.37 0-56.8 25.43-56.8 56.8v526.4c0 31.37 25.43 56.8 56.8 56.8z" />
<glyph unicode="&#xe912;" glyph-name="bar-chart" d="M928 64h-832c-17.673 0-32-14.327-32-32s14.327-32 32-32v0h832c17.673 0 32 14.327 32 32s-14.327 32-32 32v0zM170.56 640c-23.505 0-42.56-19.055-42.56-42.56v-437.44c0-17.673 14.327-32 32-32v0h128c17.673 0 32 14.327 32 32v0 437.44c0 23.505-19.055 42.56-42.56 42.56v0zM458.56 768c-23.505 0-42.56-19.055-42.56-42.56v0-565.44c0-17.673 14.327-32 32-32v0h128c17.673 0 32 14.327 32 32v0 565.44c0 23.505-19.055 42.56-42.56 42.56v0zM853.44 512h-106.88c-23.505 0-42.56-19.055-42.56-42.56v-309.44c0-17.673 14.327-32 32-32v0h128c17.673 0 32 14.327 32 32v0 309.44c0 23.505-19.055 42.56-42.56 42.56v0z" />
<glyph unicode="&#xe913;" glyph-name="eye" d="M537.76 322.56c58.816 12.348 102.345 63.792 102.345 125.403 0 62.642-44.998 114.774-104.434 125.835l-0.791 0.122c-1.107 0.227-2.379 0.356-3.682 0.356-10.504 0-19.038-8.435-19.198-18.901v-84.335c0-12.725-10.315-23.040-23.040-23.040h-84.32c-10.481-0.16-18.916-8.694-18.916-19.198 0-1.303 0.13-2.575 0.377-3.805l-0.021 0.123c11.205-60.201 63.325-105.173 125.948-105.173 9.109 0 17.996 0.952 26.567 2.761l-0.835-0.148zM512 160c0.068 0 0.149 0 0.23 0 186.617 0 349.53 101.49 436.555 252.286l1.295 2.434c5.503 9.546 8.75 20.994 8.75 33.2s-3.247 23.654-8.923 33.527l0.173-0.327c-88.388 153.28-251.379 254.797-438.080 254.797s-349.692-101.517-436.784-252.364l-1.296-2.433c-5.503-9.546-8.75-20.994-8.75-33.2s3.247-23.654 8.923-33.527l-0.173 0.327c88.32-153.23 251.233-254.72 437.85-254.72 0.081 0 0.162 0 0.243 0h-0.013zM536.96 638.4c94.739-12.793 167.006-93.14 167.006-190.366 0-106.039-85.961-192-192-192-97.226 0-177.573 72.267-190.257 166.016l-0.11 0.991c-1.040 7.507-1.634 16.181-1.634 24.994 0 106.039 85.961 192 192 192 8.813 0 17.487-0.594 25.984-1.743l-0.991 0.11z" />
<glyph unicode="&#xe914;" glyph-name="trash" d="M237.92 640c-25.361 0-45.92-20.559-45.92-45.92v0-422.72c0-94.64 76.72-171.36 171.36-171.36v0h297.28c94.64 0 171.36 76.72 171.36 171.36v0 422.72c0 25.361-20.559 45.92-45.92 45.92v0zM384 192c0-17.673-14.327-32-32-32s-32 14.327-32 32v0 288c0 17.673 14.327 32 32 32s32-14.327 32-32v0zM544 192c0-17.673-14.327-32-32-32s-32 14.327-32 32v0 288c0 17.673 14.327 32 32 32s32-14.327 32-32v0zM704 192c0-17.673-14.327-32-32-32s-32 14.327-32 32v0 288c0 17.673 14.327 32 32 32s32-14.327 32-32v0zM896 754.24c-2.286 25.744-23.751 45.777-49.895 45.777-0.459 0-0.917-0.006-1.373-0.018l0.067 0.001h-189.76c-8.306 0-15.040 6.734-15.040 15.040v0 16.96c0 35.346-28.654 64-64 64v0h-128c-35.346 0-64-28.654-64-64v0-16.96c0-8.306-6.734-15.040-15.040-15.040h-189.76c-0.389 0.011-0.846 0.017-1.305 0.017-26.144 0-47.608-20.033-49.881-45.586l-0.014-0.191c-0.033-0.669-0.052-1.452-0.052-2.24 0-26.51 21.49-48 48-48 0.018 0 0.037 0 0.055 0h671.997c0.016 0 0.034 0 0.052 0 26.51 0 48 21.49 48 48 0 0.788-0.019 1.571-0.057 2.35l0.004-0.11zM576 816c0-8.837-7.163-16-16-16v0h-96c-8.837 0-16 7.163-16 16s7.163 16 16 16v0h96c8.837 0 16-7.163 16-16v0z" />
<glyph unicode="&#xe915;" glyph-name="rotate" d="M509.28 0c0.001 0 0.002 0 0.003 0 193.914 0 359.053 123.202 421.412 295.601l0.986 3.119c1.879 5.752 2.962 12.372 2.962 19.244 0 35.346-28.654 64-64 64-26.956 0-50.019-16.664-59.45-40.253l-0.152-0.431c-45.129-125.589-163.194-213.787-301.859-213.787-176.731 0-320 143.269-320 320s143.269 320 320 320c104.108 0 196.604-49.715 255.042-126.7l0.577-0.793h-128c-35.346 0-64-28.654-64-64s28.654-64 64-64v0h320v320c0 35.346-28.654 64-64 64s-64-28.654-64-64v0-70.88c-81.417 83.256-194.882 134.879-320.405 134.879-247.424 0-448-200.576-448-448s200.576-448 448-448c0.311 0 0.622 0 0.933 0.001h-0.048z" />
<glyph unicode="&#xe916;" glyph-name="rotate-two" d="M576 576c0-35.346 28.654-64 64-64v0h320v320c0 35.346-28.654 64-64 64s-64-28.654-64-64v0-71.52c-81.398 83.132-194.781 134.67-320.201 134.67-193.537 0-358.411-122.724-421.047-294.596l-0.992-3.115c-2.566-6.658-4.053-14.362-4.053-22.413 0-35.346 28.654-64 64-64 28.081 0 51.938 18.085 60.559 43.243l0.134 0.45c45.292 125.284 163.205 213.208 301.654 213.208 104.299 0 196.943-49.898 255.363-127.124l0.582-0.803h-128c-35.346 0-64-28.654-64-64v0zM64 64c0-35.346 28.654-64 64-64s64 28.654 64 64v0 71.040c81.394-83.106 194.76-134.628 320.159-134.628 193.581 0 358.486 122.779 421.089 294.712l0.992 3.115c2.096 6.059 3.307 13.042 3.307 20.307 0 35.346-28.654 64-64 64-27.295 0-50.6-17.087-59.8-41.148l-0.147-0.439c-45.353-125.17-163.209-212.99-301.577-212.99-104.344 0-197.023 49.941-255.439 127.225l-0.583 0.806h128c35.346 0 64 28.654 64 64s-28.654 64-64 64v0h-320z" />
<glyph unicode="&#xe917;" glyph-name="power" d="M512 896c-247.424 0-448-200.576-448-448s200.576-448 448-448c247.424 0 448 200.576 448 448v0c0 247.424-200.576 448-448 448v0zM480 768c0 17.673 14.327 32 32 32s32-14.327 32-32v0-288c0-17.673-14.327-32-32-32s-32 14.327-32 32v0zM738.24 221.76c-58.125-59.271-139.040-96.010-228.535-96.010-176.731 0-320 143.269-320 320 0 125.994 72.816 234.981 178.66 287.174l1.875 0.836c3.919 1.844 8.512 2.921 13.357 2.921 17.673 0 32-14.327 32-32 0-12.135-6.755-22.692-16.709-28.117l-0.168-0.084c-84.974-42.834-142.24-129.397-142.24-229.335 0-141.385 114.615-256 256-256s256 114.615 256 256c0 99.938-57.266 186.501-140.774 228.664l-1.466 0.671c-10.122 5.509-16.877 16.066-16.877 28.201 0 17.673 14.327 32 32 32 4.845 0 9.438-1.077 13.553-3.003l-0.196 0.083c105.844-53.667 177.122-161.675 177.122-286.332 0-88.065-35.574-167.821-93.135-225.682l0.013 0.014z" />
<glyph unicode="&#xe918;" glyph-name="eye-invisibile" d="M512 256c-6.080 0-12 0-17.92 0.96l-86.080-86.24c31.181-6.854 66.998-10.78 103.731-10.78 186.774 0 349.841 101.499 437.052 252.349l1.297 2.431c5.503 9.546 8.75 20.994 8.75 33.2s-3.247 23.654-8.923 33.527l0.173-0.327c-28.495 49.443-63.027 91.671-103.332 127.556l-0.508 0.444-143.2-143.2c0-5.92 0.96-11.84 0.96-17.92 0-106.039-85.961-192-192-192v0zM896 896v0c-0.015 0-0.033 0-0.050 0-17.661 0-33.65-7.153-45.23-18.721l-170.239-170.239c-50.128 18.33-108.004 28.93-168.355 28.93-186.711 0-349.724-101.464-436.909-252.261l-1.296-2.43c-5.503-9.546-8.75-20.994-8.75-33.2s3.247-23.654 8.923-33.527l-0.173 0.327c38.19-66.113 88.548-121.018 148.478-163.25l1.602-1.070-141.28-141.28c-11.567-11.579-18.72-27.569-18.72-45.23 0-0.018 0-0.035 0-0.053v0.003c0-35.346 28.654-64 64-64v0 0c11.245 0.13 21.76 3.141 30.876 8.326l-0.316-0.166c5.564 2.976 10.352 6.488 14.577 10.577l768.143 767.983c4.072 4.208 7.584 8.996 10.392 14.219l0.168 0.341c4.944 8.869 7.855 19.455 7.855 30.721 0 35.239-28.48 63.826-63.679 63.999h-0.016zM320 448c0.127 105.943 86.040 191.777 192 191.777 30.006 0 58.405-6.883 83.702-19.157l-1.142 0.5-256-256c-11.713 23.999-18.562 52.217-18.562 82.035 0 0.297 0.001 0.594 0.002 0.891v-0.046z" />
<glyph unicode="&#xe919;" glyph-name="expand" d="M247.68 0h336c0.143 0 0.311-0.001 0.48-0.001 101.476 0 183.749 82.217 183.84 183.672v168.329c0 35.346-28.654 64-64 64s-64-28.654-64-64v0-168.32c0-30.751-24.929-55.68-55.68-55.68v0h-336c-0.19-0.002-0.415-0.004-0.64-0.004-30.751 0-55.68 24.929-55.68 55.68 0 0.001 0 0.003 0 0.004v0 336c-0.002 0.19-0.004 0.415-0.004 0.64 0 30.751 24.929 55.68 55.68 55.68 0.001 0 0.003 0 0.004 0h168.32c35.346 0 64 28.654 64 64s-28.654 64-64 64v0h-168.32c-101.407-0.091-183.589-82.273-183.68-183.671v-336.009c0-0.143-0.001-0.311-0.001-0.48 0-101.476 82.217-183.749 183.672-183.84h0.009zM896 896h-320c-35.346 0-64-28.654-64-64s28.654-64 64-64v0h165.44l-338.72-338.72c-11.588-11.588-18.756-27.597-18.756-45.28 0-35.366 28.67-64.036 64.036-64.036 17.683 0 33.692 7.167 45.28 18.756v0l338.72 338.72v-165.44c0-35.346 28.654-64 64-64s64 28.654 64 64v0 320c0 35.346-28.654 64-64 64v0z" />
<glyph unicode="&#xe91a;" glyph-name="elements" d="M785.76 896h-547.52c-96.23 0-174.24-78.010-174.24-174.24v0-49.76c0-17.673 14.327-32 32-32v0h832c17.673 0 32 14.327 32 32v0 49.76c0 96.23-78.010 174.24-174.24 174.24v0zM238.24 0h49.76c17.673 0 32 14.327 32 32v0 512c0 17.673-14.327 32-32 32v0h-192c-17.673 0-32-14.327-32-32v0-369.76c0-96.23 78.010-174.24 174.24-174.24v0zM928 576h-512c-17.673 0-32-14.327-32-32v0-512c0-17.673 14.327-32 32-32v0h369.76c96.23 0 174.24 78.010 174.24 174.24v0 369.76c0 17.673-14.327 32-32 32v0z" />
<glyph unicode="&#xe91b;" glyph-name="dots" d="M576 768c0-35.346-28.654-64-64-64s-64 28.654-64 64c0 35.346 28.654 64 64 64s64-28.654 64-64zM576 448c0-35.346-28.654-64-64-64s-64 28.654-64 64c0 35.346 28.654 64 64 64s64-28.654 64-64zM576 128c0-35.346-28.654-64-64-64s-64 28.654-64 64c0 35.346 28.654 64 64 64s64-28.654 64-64z" />
<glyph unicode="&#xe91c;" glyph-name="options" d="M256 448c0-35.346-28.654-64-64-64s-64 28.654-64 64c0 35.346 28.654 64 64 64s64-28.654 64-64zM576 448c0-35.346-28.654-64-64-64s-64 28.654-64 64c0 35.346 28.654 64 64 64s64-28.654 64-64zM896 448c0-35.346-28.654-64-64-64s-64 28.654-64 64c0 35.346 28.654 64 64 64s64-28.654 64-64z" />
<glyph unicode="&#xe91d;" glyph-name="add" d="M193.12 0h445.76c71.311 0 129.12 57.809 129.12 129.12v0 445.76c0 71.311-57.809 129.12-129.12 129.12h-445.76c-71.311 0-129.12-57.809-129.12-129.12v0-445.76c0-71.311 57.809-129.12 129.12-129.12v0zM192 374.72c0 0 0 0 0 0 0 22.742 18.391 41.189 41.111 41.28h118.889v118.72c0 22.798 18.482 41.28 41.28 41.28h45.6c22.729-0.091 41.12-18.538 41.12-41.28 0 0 0 0 0 0v0-118.72h118.88c22.729-0.091 41.12-18.538 41.12-41.28 0 0 0 0 0 0v0-45.6c-0.091-22.673-18.447-41.029-41.111-41.12h-118.889v-118.88c-0.091-22.729-18.538-41.12-41.28-41.12 0 0 0 0 0 0h-45.44c0 0-0.001 0-0.001 0-22.686 0-41.098 18.3-41.279 40.943v119.057h-118.88c-22.673 0.091-41.029 18.447-41.12 41.111v0.009zM720 896h-454.56c-22.887 0-41.44-18.553-41.44-41.44v0-45.12c0-22.887 18.553-41.44 41.44-41.44v0h425.6c77.74-0.272 140.688-63.22 140.96-140.934v-425.626c0-22.887 18.553-41.44 41.44-41.44h45.12c22.887 0 41.44 18.553 41.44 41.44v454.56c0 132.548-107.452 240-240 240v0z" />
<glyph unicode="&#xe91e;" glyph-name="bookmark" d="M912 484.16c9.651 8.811 15.683 21.447 15.683 35.491 0 24.651-18.582 44.961-42.502 47.689l-0.221 0.020-202.24 29.28c-16.348 2.451-29.819 12.849-36.516 27.067l-0.124 0.293-90.4 182.4c-7.75 16.714-24.385 28.099-43.68 28.099s-35.93-11.384-43.557-27.803l-0.123-0.296-90.4-182.4c-6.974-14.251-20.41-24.402-36.383-26.69l-0.257-0.030-202.080-29.92c-24.208-2.68-42.866-23.024-42.866-47.725 0-14.036 6.025-26.665 15.629-35.442l0.037-0.033 146.24-142.56c9.15-8.755 14.838-21.065 14.838-34.703 0-3.003-0.276-5.942-0.804-8.793l0.045 0.296-34.4-201.12c-0.619-2.89-0.973-6.211-0.973-9.615 0-26.51 21.49-48 48-48 8.712 0 16.882 2.321 23.925 6.378l-0.233-0.124 180.8 95.040c6.552 3.573 14.351 5.675 22.64 5.675s16.088-2.101 22.892-5.8l-0.252 0.126 180.8-95.040c6.811-3.934 14.981-6.255 23.693-6.255 26.51 0 48 21.49 48 48 0 3.404-0.354 6.724-1.028 9.928l0.055-0.313-34.24 201.28c-0.482 2.555-0.758 5.494-0.758 8.497 0 13.638 5.688 25.947 14.82 34.686l0.018 0.017z" />
<glyph unicode="&#xe91f;" glyph-name="lock" d="M896 461.76c0 45.42-36.82 82.24-82.24 82.24v0h-603.52c-45.42 0-82.24-36.82-82.24-82.24v0-379.52c0-45.42 36.82-82.24 82.24-82.24h603.52c45.42 0 82.24 36.82 82.24 82.24v0zM549.92 250.4l14.72-103.2c0.209-1.346 0.328-2.899 0.328-4.48 0-16.966-13.754-30.72-30.72-30.72-0.003 0-0.006 0-0.009 0h-44.32c-0.050 0-0.109 0-0.168 0-16.966 0-30.72 13.754-30.72 30.72 0 1.581 0.119 3.134 0.35 4.651l-0.021-0.17 14.72 103.36c0.090 0.822 0.142 1.775 0.142 2.74 0 8.481-3.975 16.034-10.164 20.897l-0.057 0.043c-15.127 13.212-24.631 32.535-24.631 54.078 0 34.257 24.031 62.901 56.155 69.994l0.476 0.088c4.664 1.076 10.020 1.693 15.52 1.693 39.765 0 72-32.235 72-72 0-0.033 0-0.065 0-0.098v0.005c0.003-0.261 0.005-0.569 0.005-0.877 0-20.957-9.054-39.799-23.464-52.828l-0.061-0.055c-6.252-4.936-10.229-12.516-10.229-21.024 0-0.992 0.054-1.971 0.159-2.935l-0.011 0.119zM227.68 654.24c-0.278-1.779-0.437-3.831-0.437-5.92 0-22.268 18.052-40.32 40.32-40.32 0.041 0 0.082 0 0.123 0h47.994c19.284 0.046 35.383 13.621 39.312 31.734l0.048 0.266c15.187 73.828 79.642 128.557 156.88 128.557s141.693-54.729 156.702-127.523l0.178-1.034c3.977-18.379 20.076-31.954 39.355-32h48.005c0.035 0 0.076 0 0.117 0 22.268 0 40.32 18.052 40.32 40.32 0 2.089-0.159 4.141-0.465 6.144l0.028-0.224c-22.906 138.1-141.467 242.107-284.32 242.107s-261.414-104.007-284.089-240.428l-0.231-1.68z" />
<glyph unicode="&#xe920;" glyph-name="down" d="M455.36 89.76c14.476-14.472 34.473-23.423 56.56-23.423s42.084 8.951 56.56 23.423v0l213.76 214.24c6.448 6.479 10.435 15.414 10.435 25.28s-3.986 18.801-10.436 25.281l0.001-0.001-62.24 61.44c-6.479 6.448-15.414 10.435-25.28 10.435s-18.801-3.986-25.281-10.436l0.001 0.001-40.64-39.68c-2.205-2.226-5.262-3.604-8.64-3.604-6.716 0-12.16 5.444-12.16 12.16 0 0.029 0 0.059 0 0.088v-0.005 347.2c0 19.794-16.046 35.84-35.84 35.84v0h-120.32c-19.794 0-35.84-16.046-35.84-35.84v0-347.2c0-0.025 0-0.054 0-0.084 0-6.716-5.444-12.16-12.16-12.16-3.379 0-6.436 1.378-8.639 3.603l-0.001 0.001-40.32 39.68c-6.495 6.544-15.495 10.595-25.44 10.595s-18.945-4.051-25.438-10.593l-62.562-62.562c-6.448-6.479-10.435-15.414-10.435-25.28s3.986-18.801 10.436-25.281l-0.001 0.001z" />
<glyph unicode="&#xe921;" glyph-name="up" d="M304 480c6.479-6.448 15.414-10.435 25.28-10.435s18.801 3.986 25.281 10.436l40.319 40.319c2.205 2.226 5.262 3.604 8.64 3.604 6.716 0 12.16-5.444 12.16-12.16 0-0.029 0-0.059 0-0.088v0.005-347.2c-0.004-0.191-0.006-0.416-0.006-0.641 0-19.794 16.046-35.84 35.84-35.84 0.115 0 0.229 0.001 0.343 0.002h120.303c19.794 0 35.84 16.046 35.84 35.84v0 347.2c0 0.025 0 0.054 0 0.084 0 6.716 5.444 12.16 12.16 12.16 3.379 0 6.436-1.378 8.639-3.603l0.001-0.001 40.32-39.68c6.495-6.544 15.495-10.595 25.44-10.595s18.945 4.051 25.438 10.593l62.562 62.562c6.448 6.479 10.435 15.414 10.435 25.28s-3.986 18.801-10.436 25.281l0.001-0.001-213.92 213.12c-14.476 14.472-34.473 23.423-56.56 23.423s-42.084-8.951-56.56-23.423v0l-213.76-214.24c-6.448-6.479-10.435-15.414-10.435-25.28s3.986-18.801 10.436-25.281l-0.001 0.001z" />
<glyph unicode="&#xe922;" glyph-name="transfer" d="M365.28 877.28c-11.584 11.597-27.594 18.77-45.28 18.77s-33.696-7.174-45.279-18.77l-183.521-183.521c-3.215-3.214-5.204-7.655-5.204-12.56s1.989-9.346 5.204-12.56v0l65.6-65.44c3.214-3.215 7.655-5.204 12.56-5.204s9.346 1.989 12.56 5.204l62.56 62.56c1.238 1.207 2.933 1.952 4.801 1.952 3.755 0 6.807-3.008 6.879-6.746v-323.207c0 0 0 0 0-0.001 0-9.752 7.86-17.669 17.591-17.759h92.649c9.74 0.091 17.6 8.007 17.6 17.759 0 0 0 0.001 0 0.001v0 323.2c0.072 3.744 3.124 6.752 6.879 6.752 1.868 0 3.563-0.745 4.803-1.954l62.559-62.559c3.214-3.215 7.655-5.204 12.56-5.204s9.346 1.989 12.56 5.204v0l65.44 65.6c3.215 3.214 5.204 7.655 5.204 12.56s-1.989 9.346-5.204 12.56v0zM750.24 576h-92.48c-9.809 0-17.76-7.951-17.76-17.76v0-323.2c-0.072-3.744-3.124-6.752-6.879-6.752-1.868 0-3.563 0.745-4.803 1.954l-62.559 62.559c-3.214 3.215-7.655 5.204-12.56 5.204s-9.346-1.989-12.56-5.204v0l-65.44-65.6c-3.215-3.214-5.204-7.655-5.204-12.56s1.989-9.346 5.204-12.56l183.52-183.36c11.584-11.597 27.594-18.77 45.28-18.77s33.696 7.174 45.279 18.77l183.521 183.521c3.215 3.214 5.204 7.655 5.204 12.56s-1.989 9.346-5.204 12.56v0l-65.6 65.44c-3.214 3.215-7.655 5.204-12.56 5.204s-9.346-1.989-12.56-5.204l-62.56-62.56c-1.238-1.207-2.933-1.952-4.801-1.952-3.755 0-6.807 3.008-6.879 6.746v323.207c0 0 0 0 0 0.001 0 9.752-7.86 17.669-17.591 17.759h-0.009z" />
<glyph unicode="&#xe923;" glyph-name="transfer-horizontal" d="M940.8 595.2c25.6 25.6 25.6 65.6 0 91.2 0 0 0 0 0 0l-182.4 182.4c-6.4 6.4-17.6 6.4-25.6 0 0 0 0 0 0 0l-65.6-65.6c-6.4-6.4-6.4-17.6 0-25.6 0 0 0 0 0 0l62.4-62.4c3.2-3.2 3.2-6.4 0-9.6-1.6-1.6-3.2-1.6-4.8-1.6h-323.2c-9.6 0-17.6-8-17.6-17.6v-92.8c0-9.6 8-17.6 17.6-17.6h323.2c3.2 0 6.4-3.2 6.4-6.4 0-1.6 0-3.2-1.6-4.8l-62.4-62.4c-6.4-6.4-6.4-17.6 0-25.6 0 0 0 0 0 0l65.6-65.6c6.4-6.4 17.6-6.4 25.6 0 0 0 0 0 0 0l182.4 184zM640 209.6v92.8c0 9.6-8 17.6-17.6 17.6 0 0 0 0 0 0h-323.2c-3.2 0-6.4 3.2-6.4 6.4 0 1.6 0 3.2 1.6 4.8l62.4 62.4c6.4 6.4 6.4 17.6 0 25.6 0 0 0 0 0 0l-65.6 65.6c-6.4 6.4-17.6 6.4-25.6 0 0 0 0 0 0 0l-182.4-184c-25.6-25.6-25.6-65.6 0-91.2 0 0 0 0 0 0l184-184c6.4-6.4 17.6-6.4 25.6 0 0 0 0 0 0 0l65.6 65.6c6.4 6.4 6.4 17.6 0 25.6 0 0 0 0 0 0l-62.4 62.4c-3.2 3.2-3.2 6.4 0 9.6 1.6 1.6 3.2 1.6 4.8 1.6h323.2c8 1.6 16 9.6 16 19.2z" />
<glyph unicode="&#xe924;" glyph-name="settings" d="M909.44 592c7.359 8.243 11.856 19.177 11.856 31.162 0 8.613-2.323 16.684-6.376 23.62l0.12-0.222-30.080 52.16c-8.385 13.516-23.142 22.383-39.97 22.383-3.583 0-7.071-0.402-10.424-1.163l0.314 0.060-61.76-12.64c-8.265-1.684-17.764-2.648-27.489-2.648-27.174 0-52.59 7.527-74.277 20.61l0.647-0.362h-0.96c-30.212 17.511-53.086 44.842-64.493 77.55l-0.307 1.010-19.52 60.48c-6.415 18.755-23.889 32-44.456 32-0.008 0-0.017 0-0.025 0h-60.319c-0.007 0-0.016 0-0.024 0-20.567 0-38.041-13.245-44.358-31.67l-0.098-0.33-20-60c-11.518-33.611-34.107-60.919-63.33-78.194l-0.67-0.366h-0.96c-20.878-12.469-46.049-19.841-72.941-19.841-9.857 0-19.483 0.99-28.783 2.877l0.925-0.157-62.56 11.68c-2.836 0.61-6.095 0.959-9.435 0.959-17.293 0-32.399-9.363-40.525-23.296l-0.12-0.223-30.080-51.52c-3.835-6.647-6.098-14.619-6.098-23.12 0-11.815 4.371-22.61 11.584-30.855l-0.047 0.055 40.96-46.080c22.748-25.572 36.646-59.455 36.646-96.584 0-0.47-0.002-0.939-0.007-1.408l0.001 0.072c-0.151-36.919-14.020-70.57-36.769-96.147l0.129 0.147-40.8-48c-7.359-8.243-11.856-19.177-11.856-31.162 0-8.613 2.323-16.684 6.376-23.62l-0.12 0.222 30.080-52.16c8.385-13.516 23.142-22.383 39.97-22.383 3.583 0 7.071 0.402 10.424 1.163l-0.314-0.060 61.76 12.64c8.265 1.684 17.764 2.648 27.489 2.648 27.174 0 52.59-7.527 74.277-20.61l-0.647 0.362h0.96c30.212-17.511 53.086-44.842 64.493-77.55l0.307-1.010 19.52-60.48c6.415-18.755 23.889-32 44.456-32 0.008 0 0.017 0 0.025 0h60.319c0.007 0 0.016 0 0.024 0 20.567 0 38.041 13.245 44.358 31.67l0.098 0.33 20 59.84c11.518 33.611 34.107 60.919 63.33 78.194l0.67 0.366h0.96c20.878 12.469 46.049 19.841 72.941 19.841 9.857 0 19.483-0.99 28.783-2.877l-0.925 0.157 61.76-12.64c2.836-0.61 6.095-0.959 9.435-0.959 17.293 0 32.399 9.363 40.525 23.296l0.12 0.223 30.080 52.16c4.138 6.847 6.586 15.118 6.586 23.961 0 11.648-4.248 22.303-11.279 30.502l0.053-0.063-41.92 48c-22.161 25.199-35.684 58.464-35.684 94.888 0 0.391 0.002 0.782 0.005 1.172v-0.060c-0.004 0.384-0.006 0.839-0.006 1.293 0 36.339 13.461 69.534 35.668 94.872l-0.142-0.165zM512 320c-70.692 0-128 57.308-128 128s57.308 128 128 128c70.692 0 128-57.308 128-128v0c0-70.692-57.308-128-128-128v0z" />
<glyph unicode="&#xe925;" glyph-name="settings-alt" d="M512 640c-0.001 0.183-0.002 0.398-0.002 0.615 0 20.713 7.703 39.628 20.4 54.035l-0.077-0.090 24 27.040c4.198 4.72 6.762 10.974 6.762 17.827 0 4.921-1.322 9.533-3.631 13.501l0.069-0.128-17.28 29.76c-4.746 8.041-13.366 13.351-23.227 13.351-1.916 0-3.786-0.201-5.589-0.582l0.176 0.031-35.36-7.2c-4.806-0.999-10.329-1.572-15.985-1.572-15.344 0-29.705 4.211-41.991 11.539l0.376-0.208c-17.258 10.195-30.235 26.079-36.475 45.022l-0.165 0.578-11.36 34.24c-3.71 10.698-13.701 18.24-25.454 18.24-0.051 0-0.103 0-0.154 0h-34.392c-11.462-0.384-21.075-7.887-24.584-18.211l-0.056-0.189-11.36-34.24c-6.652-19.245-19.707-34.841-36.566-44.59l-0.394-0.21c-11.909-7.121-26.27-11.332-41.615-11.332-5.656 0-11.179 0.572-16.514 1.662l0.529-0.090-35.36 7.2c-1.627 0.35-3.497 0.551-5.413 0.551-9.861 0-18.481-5.31-23.159-13.226l-0.068-0.125-18.56-30.080c-2.24-3.839-3.562-8.451-3.562-13.373 0-6.853 2.565-13.107 6.786-17.855l-0.024 0.027 23.36-26.4c13.011-14.616 20.961-33.986 20.961-55.213 0-0.108 0-0.216-0.001-0.323v0.017c-0.003-21.222-7.952-40.588-21.033-55.284l-23.287-26.636c-4.369-4.764-7.047-11.141-7.047-18.143 0-5.119 1.431-9.903 3.914-13.975l-0.067 0.118 17.28-28.96c4.746-8.041 13.366-13.351 23.227-13.351 1.916 0 3.786 0.201 5.589 0.582l-0.176-0.031 35.36 7.2c4.806 0.999 10.329 1.572 15.985 1.572 15.344 0 29.705-4.211 41.991-11.539l-0.376 0.208c17.28-9.996 30.342-25.651 36.788-44.385l0.172-0.575 12.64-34.4c3.565-10.513 13.178-18.016 24.596-18.399l0.044-0.001h34.4c11.785 0.030 21.785 7.64 25.384 18.211l0.056 0.189 11.52 34.080c6.652 19.245 19.707 34.841 36.566 44.59l0.394 0.21c11.909 7.121 26.27 11.332 41.615 11.332 5.656 0 11.179-0.572 16.514-1.662l-0.529 0.090 35.36-7.2c1.627-0.35 3.497-0.551 5.413-0.551 9.861 0 18.481 5.31 23.159 13.226l0.068 0.125 17.44 30.24c2.24 3.839 3.562 8.451 3.562 13.373 0 6.853-2.565 13.107-6.786 17.855l0.024-0.027-24 27.040c-12.908 14.395-20.801 33.519-20.801 54.486 0 0.139 0 0.277 0.001 0.416v-0.021zM329.92 566.88c-40.383 0-73.12 32.737-73.12 73.12s32.737 73.12 73.12 73.12c40.383 0 73.12-32.737 73.12-73.12v0c0-40.383-32.737-73.12-73.12-73.12v0zM876.96 256c-0.001 0.183-0.002 0.398-0.002 0.615 0 20.713 7.703 39.628 20.4 54.035l-0.077-0.090 24 27.040c4.198 4.72 6.762 10.974 6.762 17.827 0 4.921-1.322 9.533-3.631 13.501l0.069-0.128-17.28 30.080c-4.746 8.041-13.366 13.351-23.227 13.351-1.916 0-3.786-0.201-5.589-0.582l0.176 0.031-35.36-7.2c-4.806-0.999-10.329-1.572-15.985-1.572-15.344 0-29.705 4.211-41.991 11.539l0.376-0.208c-17.28 9.996-30.342 25.651-36.788 44.385l-0.172 0.575-12.64 34.4c-3.565 10.513-13.178 18.016-24.596 18.399l-0.044 0.001h-34.4c-11.785-0.030-21.785-7.64-25.384-18.211l-0.056-0.189-11.52-34.080c-6.652-19.245-19.707-34.841-36.566-44.59l-0.394-0.21c-11.909-7.121-26.27-11.332-41.615-11.332-5.656 0-11.179 0.572-16.514 1.662l0.529-0.090-35.36 7.2c-1.627 0.35-3.497 0.551-5.413 0.551-9.861 0-18.481-5.31-23.159-13.226l-0.068-0.125-17.44-30.24c-2.24-3.839-3.562-8.451-3.562-13.373 0-6.853 2.565-13.107 6.786-17.855l-0.024 0.027 23.36-26.4c13.25-14.635 21.379-34.122 21.44-55.508v-0.012c-0.003-21.222-7.952-40.588-21.033-55.284l0.073 0.084-23.36-26.4c-4.369-4.764-7.047-11.141-7.047-18.143 0-5.119 1.431-9.903 3.914-13.975l-0.067 0.118 17.28-29.76c4.746-8.041 13.366-13.351 23.227-13.351 1.916 0 3.786 0.201 5.589 0.582l-0.176-0.031 35.36 7.2c4.806 0.999 10.329 1.572 15.985 1.572 15.344 0 29.705-4.211 41.991-11.539l-0.376 0.208c17.125-10.012 30.067-25.598 36.468-44.225l0.172-0.575 11.36-34.24c3.71-10.698 13.701-18.24 25.454-18.24 0.051 0 0.103 0 0.154 0h34.392c11.462 0.384 21.075 7.887 24.584 18.211l0.056 0.189 11.36 34.24c6.652 19.245 19.707 34.841 36.566 44.59l0.394 0.21c11.909 7.121 26.27 11.332 41.615 11.332 5.656 0 11.179-0.572 16.514-1.662l-0.529 0.090 35.36-7.2c1.627-0.35 3.497-0.551 5.413-0.551 9.861 0 18.481 5.31 23.159 13.226l0.068 0.125 17.28 29.76c2.24 3.839 3.562 8.451 3.562 13.373 0 6.853-2.565 13.107-6.786 17.855l0.024-0.027-24 27.040c-11.871 14.097-19.085 32.457-19.085 52.502 0 0.949 0.016 1.894 0.048 2.835l-0.004-0.137zM694.080 182.88c-40.038 0.452-72.32 33.014-72.32 73.116 0 40.383 32.737 73.12 73.12 73.12 40.382 0 73.118-32.734 73.12-73.115v0c0-0.001 0-0.003 0-0.004 0-40.383-32.737-73.12-73.12-73.12-0.281 0-0.562 0.002-0.843 0.005h0.043z" />
<glyph unicode="&#xe926;" glyph-name="pointer-down" d="M805.6 740.64l-256.96-256.96c-9.38-9.371-22.333-15.167-36.64-15.167s-27.26 5.796-36.64 15.168l-256.96 256.96c-16.367 16.406-38.998 26.555-64 26.555-49.927 0-90.4-40.473-90.4-90.4 0-0.055 0-0.109 0-0.164v0.008-78.88c0-0.023 0-0.050 0-0.078 0-43.275 17.549-82.452 45.919-110.801l0.001-0.001 311.52-310.88c23.161-23.146 55.149-37.461 90.48-37.461s67.319 14.315 90.481 37.461l-0.001-0.001 311.68 311.040c28.371 28.35 45.92 67.527 45.92 110.802 0 0.027 0 0.055 0 0.082v-0.004 78.72c0 0.046 0 0.101 0 0.155 0 49.927-40.473 90.4-90.4 90.4-25.002 0-47.633-10.15-63.998-26.554l-0.002-0.002z" />
<glyph unicode="&#xe927;" glyph-name="pointer-up" d="M602.56 720c-23.161 23.146-55.149 37.461-90.48 37.461s-67.319-14.315-90.481-37.461l-311.679-311.679c-28.371-28.35-45.92-67.527-45.92-110.802 0-0.027 0-0.055 0-0.082v0.004-78.88c0-0.046 0-0.101 0-0.155 0-49.927 40.473-90.4 90.4-90.4 25.002 0 47.633 10.15 63.998 26.554l256.962 257.122c9.38 9.371 22.333 15.167 36.64 15.167s27.26-5.796 36.64-15.168l256.96-256.96c16.367-16.406 38.998-26.555 64-26.555 49.927 0 90.4 40.473 90.4 90.4 0 0.055 0 0.109 0 0.164v-0.008 78.72c0 0.023 0 0.050 0 0.078 0 43.275-17.549 82.452-45.919 110.801l-0.001 0.001z" />
<glyph unicode="&#xe928;" glyph-name="pointer-right" d="M218.56 154.4c-16.406-16.367-26.555-38.998-26.555-64 0-49.927 40.473-90.4 90.4-90.4 0.055 0 0.109 0 0.164 0h78.872c0.023 0 0.050 0 0.078 0 43.275 0 82.452 17.549 110.801 45.919l311.681 311.521c23.146 23.161 37.461 55.149 37.461 90.48s-14.315 67.319-37.461 90.481l-311.839 311.679c-28.35 28.371-67.527 45.92-110.802 45.92-0.027 0-0.055 0-0.082 0h-78.876c-0.046 0-0.101 0-0.155 0-49.927 0-90.4-40.473-90.4-90.4 0-25.002 10.15-47.633 26.554-63.998l257.122-256.962c9.371-9.38 15.167-22.333 15.167-36.64s-5.796-27.26-15.168-36.64v0z" />
<glyph unicode="&#xe929;" glyph-name="pointer-left" d="M805.28 741.6c16.406 16.367 26.555 38.998 26.555 64 0 49.927-40.473 90.4-90.4 90.4-0.055 0-0.109 0-0.164 0h-78.712c-0.023 0-0.050 0-0.078 0-43.275 0-82.452-17.549-110.801-45.919l-311.681-311.521c-23.146-23.161-37.461-55.149-37.461-90.48s14.315-67.319 37.461-90.481l311.679-311.679c28.35-28.371 67.527-45.92 110.802-45.92 0.027 0 0.055 0 0.082 0h78.876c0.046 0 0.101 0 0.155 0 49.927 0 90.4 40.473 90.4 90.4 0 25.002-10.15 47.633-26.554 63.998l-257.122 256.962c-9.371 9.38-15.167 22.333-15.167 36.64s5.796 27.26 15.168 36.64v0z" />
<glyph unicode="&#xe92a;" glyph-name="add-circle" d="M512 896c-247.424 0-448-200.576-448-448s200.576-448 448-448c247.424 0 448 200.576 448 448v0c0 247.424-200.576 448-448 448v0zM704 384h-128v-128c0-35.346-28.654-64-64-64s-64 28.654-64 64v0 128h-128c-35.346 0-64 28.654-64 64s28.654 64 64 64v0h128v128c0 35.346 28.654 64 64 64s64-28.654 64-64v0-128h128c35.346 0 64-28.654 64-64s-28.654-64-64-64v0z" />
<glyph unicode="&#xe92b;" glyph-name="remove-circle" d="M512 896c-247.424 0-448-200.576-448-448s200.576-448 448-448c247.424 0 448 200.576 448 448v0c0 247.424-200.576 448-448 448v0zM704 384h-384c-35.346 0-64 28.654-64 64s28.654 64 64 64v0h384c35.346 0 64-28.654 64-64s-28.654-64-64-64v0z" />
<glyph unicode="&#xe92c;" glyph-name="chevron-up" d="M587.68 574.72c-17.733 22.571-45.029 36.936-75.68 36.936s-57.947-14.365-75.523-36.729l-0.157-0.207-237.6-300.48c-12.213-15.374-19.594-35.065-19.594-56.48 0-50.338 40.783-91.151 91.109-91.2h483.525c50.331 0.049 91.114 40.862 91.114 91.2 0 21.415-7.381 41.106-19.738 56.668l0.144-0.188z" />
<glyph unicode="&#xe92d;" glyph-name="chevron-down" d="M587.68 192l237.6 300.32c12.213 15.374 19.594 35.065 19.594 56.48 0 50.338-40.783 91.151-91.109 91.2h-483.525c-50.331-0.049-91.114-40.862-91.114-91.2 0-21.415 7.381-41.106 19.738-56.668l-0.144 0.188 237.6-300.32c17.733-22.571 45.029-36.936 75.68-36.936s57.947 14.365 75.523 36.729l0.157 0.207z" />
<glyph unicode="&#xe92e;" glyph-name="notification" d="M627.2 50.4c1.29 1.437 2.079 3.347 2.079 5.442 0 4.45-3.562 8.068-7.991 8.158h-218.568c-4.437-0.090-7.999-3.708-7.999-8.158 0-2.094 0.789-4.004 2.086-5.449l-0.007 0.008c28.758-31.008 69.72-50.351 115.2-50.351s86.442 19.343 115.108 50.251l0.092 0.1zM935.68 216.32c-64.059 64.073-103.68 152.582-103.68 250.345 0 0.019 0 0.039 0 0.058v-0.003 100.96c0 173.92-135.2 322.4-309.12 328.32-3.244 0.118-7.054 0.185-10.88 0.185-176.731 0-320-143.269-320-320 0-0.065 0-0.13 0-0.196v0.011-109.28c0-0.017 0-0.036 0-0.055 0-97.763-39.621-186.272-103.681-250.345l-12.959-12.959c-7.010-7-11.349-16.672-11.36-27.358v-9.122c0-0.047 0-0.104 0-0.16 0-21.384 17.336-38.72 38.72-38.72 0 0 0 0 0 0h818.56c21.384 0 38.72 17.336 38.72 38.72v0 9.28c-0.011 10.688-4.35 20.36-11.36 27.36v0z" />
<glyph unicode="&#xe92f;" glyph-name="message" d="M512.96 864c-248 0-448.96-186.24-448.96-416 0.245-94.257 33.53-180.692 88.878-248.384l-0.558 0.704c6.937-8.68 11.132-19.815 11.132-31.931 0-4.865-0.676-9.571-1.94-14.031l0.088 0.362-25.6-93.6c-0.364-1.324-0.573-2.844-0.573-4.413 0-9.543 7.737-17.28 17.28-17.28 1.569 0 3.089 0.209 4.534 0.601l-0.121-0.028 128 35.040c3.923 1.034 8.428 1.628 13.071 1.628 7.9 0 15.399-1.719 22.142-4.804l-0.333 0.136c56.278-25.277 121.986-40.001 191.133-40.001 0.305 0 0.609 0 0.914 0.001h-0.047c248 0 448.96 186.24 448.96 416s-200 416-448 416zM304 400c-26.51 0-48 21.49-48 48s21.49 48 48 48c26.51 0 48-21.49 48-48v0c0-26.51-21.49-48-48-48v0zM512 400c-26.51 0-48 21.49-48 48s21.49 48 48 48c26.51 0 48-21.49 48-48v0c0-26.51-21.49-48-48-48v0zM720 400c-26.51 0-48 21.49-48 48s21.49 48 48 48c26.51 0 48-21.49 48-48v0c0-26.51-21.49-48-48-48v0z" />
<glyph unicode="&#xe930;" glyph-name="zoom-in" d="M959.040 477.28c-15.737 234.577-209.871 418.894-447.053 418.894-247.424 0-448-200.576-448-448s200.576-448 448-448c89.39 0 172.666 26.181 242.577 71.292l-1.764-1.066c6.344 4.175 14.123 6.659 22.482 6.659 11.403 0 21.727-4.624 29.198-12.099l54.24-54.24c6.174-6.316 14.663-10.346 24.092-10.718l0.068-0.002c0.579-0.016 1.261-0.025 1.945-0.025 41.532 0 75.2 33.668 75.2 75.2 0 0.684-0.009 1.366-0.027 2.045l0.002-0.1c-0.374 9.497-4.404 17.986-10.713 24.153l-54.247 54.247c-7.475 7.471-12.099 17.795-12.099 29.198 0 8.359 2.485 16.138 6.756 22.638l-0.096-0.156c44.163 68.013 70.421 151.195 70.421 240.511 0 10.404-0.356 20.725-1.057 30.951l0.076-1.382zM480 129.6c-162.419 16.806-287.996 152.936-287.996 318.396 0 176.731 143.269 320 320 320 165.46 0 301.589-125.577 318.28-286.623l0.115-1.373c0.929-9.167 1.458-19.811 1.458-30.578 0-177.438-143.842-321.28-321.28-321.28-10.768 0-21.411 0.53-31.907 1.564l1.328-0.106zM634.080 496h-36c-21.031 0-38.080 17.049-38.080 38.080v0 36c-0.091 20.962-17.105 37.92-38.080 37.92 0 0 0 0 0 0h-19.84c0 0 0 0 0 0-20.975 0-37.989-16.958-38.080-37.911v-36.169c-0.091-20.962-17.105-37.92-38.080-37.92 0 0 0 0 0 0h-36c-20.962-0.091-37.92-17.105-37.92-38.080 0 0 0 0 0 0v0-19.84c0 0 0 0 0 0 0-20.975 16.958-37.989 37.911-38.080h36.169c20.962-0.091 37.92-17.105 37.92-38.080 0 0 0 0 0 0v0-36.16c0.181-20.893 17.16-37.76 38.079-37.76 0 0 0.001 0 0.001 0h19.84c0 0 0 0 0 0 20.975 0 37.989 16.958 38.080 37.911v36.009c0 21.031 17.049 38.080 38.080 38.080v0h36.16c20.893 0.181 37.76 17.16 37.76 38.079 0 0 0 0.001 0 0.001v0 19.84c0 0 0 0 0 0 0 20.975-16.958 37.989-37.911 38.080h-0.009z" />
<glyph unicode="&#xe931;" glyph-name="information" d="M512 896c-247.424 0-448-200.576-448-448s200.576-448 448-448c247.424 0 448 200.576 448 448v0c0 247.424-200.576 448-448 448v0zM512 704c44.183 0 80-35.817 80-80s-35.817-80-80-80c-44.183 0-80 35.817-80 80v0c0 44.183 35.817 80 80 80v0zM640 216c0-13.255-10.745-24-24-24v0h-208c-13.255 0-24 10.745-24 24v0 16c0 13.255 10.745 24 24 24v0c13.255 0 24 10.745 24 24v0 144c0 13.255-10.745 24-24 24v0c-13.255 0-24 10.745-24 24v0 16c0 13.255 10.745 24 24 24v0h160c13.255 0 24-10.745 24-24v0-208c0-13.255 10.745-24 24-24v0c13.255 0 24-10.745 24-24v0z" />
<glyph unicode="&#xe932;" glyph-name="confirm" d="M512 896c-247.424 0-448-200.576-448-448s200.576-448 448-448c247.424 0 448 200.576 448 448v0c0 247.424-200.576 448-448 448v0zM734.080 488.8l-236-236c-11.584-11.597-27.594-18.77-45.28-18.77s-33.696 7.174-45.279 18.77l-117.761 117.761c-11.621 11.588-18.811 27.615-18.811 45.321 0 22.414 11.523 42.138 28.968 53.569l0.244 0.15c9.815 6.245 21.775 9.954 34.602 9.954 18.299 0 34.834-7.547 46.664-19.699l0.014-0.015 23.68-23.68c6.421-6.403 10.393-15.257 10.393-25.040s-3.973-18.637-10.393-25.039l-0.001-0.001c-2.875-2.892-4.653-6.878-4.653-11.28s1.777-8.388 4.653-11.281l-0.001 0.001c2.892-2.875 6.878-4.653 11.28-4.653s8.388 1.777 11.281 4.653l214.719 214.559c11.844 12.166 28.38 19.714 46.678 19.714 12.826 0 24.786-3.708 34.867-10.111l-0.265 0.157c17.689-11.581 29.211-31.305 29.211-53.719 0-17.706-7.19-33.733-18.81-45.319l-0.002-0.002z" />
<glyph unicode="&#xe933;" glyph-name="account-circle" d="M512 0c247.424 0 448 200.576 448 448s-200.576 448-448 448c-247.424 0-448-200.576-448-448v0c0-247.424 200.576-448 448-448v0zM511.2 766.72c88.366 0 160-71.634 160-160s-71.634-160-160-160c-88.366 0-160 71.634-160 160v0c0 88.366 71.634 160 160 160v0zM303.2 306.88c55.701 48.714 129.101 78.423 209.44 78.423s153.739-29.71 209.812-78.742l-0.372 0.319c13.877-12.148 22.592-29.896 22.592-49.68s-8.715-37.532-22.516-49.615l-0.076-0.065c-55.701-48.714-129.101-78.423-209.44-78.423s-153.739 29.71-209.812 78.742l0.372-0.319c-14.066 12.159-22.914 30.026-22.914 49.959 0 19.635 8.585 37.265 22.205 49.341l0.069 0.060z" />
<glyph unicode="&#xe934;" glyph-name="account" d="M736 672c0-123.712-100.288-224-224-224s-224 100.288-224 224c0 123.712 100.288 224 224 224s224-100.288 224-224zM877.6 301.12c-95.68 50.88-224.16 82.88-365.6 82.88s-269.92-32-365.6-82.88c-49.487-27.563-82.411-79.57-82.411-139.267 0-0.651 0.004-1.302 0.012-1.952l-0.001 0.099c0-88.366 71.634-160 160-160v0h576c88.366 0 160 71.634 160 160v0 0c0.007 0.551 0.011 1.201 0.011 1.853 0 59.697-32.924 111.704-81.604 138.854l-0.807 0.413z" />
<glyph unicode="&#xe935;" glyph-name="pie-chart" d="M464 1.12c4.78-0.197 10.389-0.309 16.024-0.309 201.557 0 369.634 143.344 407.85 333.649l0.446 2.66c0.441 2.165 0.693 4.653 0.693 7.2 0 20.817-16.845 37.699-37.647 37.76h-333.126c-0.19-0.003-0.415-0.005-0.64-0.005-20.766 0-37.6 16.834-37.6 37.6 0 0.002 0 0.004 0 0.006v0 373.76c0.001 0.081 0.001 0.176 0.001 0.271 0 20.589-16.691 37.28-37.28 37.28-1.014 0-2.018-0.040-3.012-0.12l0.131 0.008c-211.851-21.112-375.92-198.428-375.92-414.065 0-224.152 177.283-406.897 399.283-415.67l0.797-0.025zM584.48 894.24c-0.863 0.075-1.867 0.118-2.881 0.118-19.44 0-35.2-15.76-35.2-35.2 0-0.098 0-0.195 0.001-0.293v0.015-375.52c0-19.529 15.831-35.36 35.36-35.36h343.36c0.049 0 0.108 0 0.166 0 18.95 0 34.355 15.182 34.714 34.047l0.001 0.034c0 0.094 0 0.205 0 0.317 0 215.017-164.075 391.713-373.852 411.715l-1.668 0.129z" />
<glyph unicode="&#xe936;" glyph-name="camera" d="M512 481.28c-88.984 0-161.12-72.136-161.12-161.12s72.136-161.12 161.12-161.12c88.928 0 161.029 72.045 161.12 160.951v0.009c0 89.016-72.116 161.189-161.111 161.28h-0.009zM848 640h-43.040c-43.437 0.104-81.053 24.919-99.546 61.126l-0.294 0.634-2.24 4.64c-18.827 36.777-56.435 61.528-99.83 61.6h-182.090c-43.437-0.104-81.053-24.919-99.546-61.126l-0.294-0.634-55.68-111.36c-5.669-11.276-17.146-18.879-30.4-18.88h-7.36c-0.013 0-0.029 0-0.045 0-16.259 0-29.44 13.181-29.44 29.44 0 4.781 1.14 9.296 3.162 13.288l-0.077-0.168c1.023 1.953 1.623 4.266 1.623 6.72 0 8.13-6.59 14.72-14.72 14.72-0.008 0-0.016 0-0.025 0h-12.159c-61.856 0-112-50.144-112-112v0-416c0-61.856 50.144-112 112-112v0h672c61.856 0 112 50.144 112 112v0 416c0 61.856-50.144 112-112 112v0zM512 95.040c-124.33 0-225.12 100.79-225.12 225.12s100.79 225.12 225.12 225.12c124.33 0 225.12-100.79 225.12-225.12 0-0.056 0-0.112 0-0.169v0.009c-0.273-124.188-100.919-224.778-225.103-224.96h-0.017zM832 480c-17.673 0-32 14.327-32 32s14.327 32 32 32c17.673 0 32-14.327 32-32v0c0-17.673-14.327-32-32-32v0z" />
<glyph unicode="&#xe937;" glyph-name="phone" d="M392.64 692.48c13.332 13.297 21.58 31.685 21.58 52s-8.248 38.703-21.579 51.998l-77.922 77.922c-13.297 13.332-31.685 21.58-52 21.58s-38.703-8.248-51.998-21.579l-77.922-77.922c-129.28-129.12-71.040-396.48 129.92-597.76s468.64-259.2 597.76-129.92l77.92 77.92c13.332 13.297 21.58 31.685 21.58 52s-8.248 38.703-21.579 51.998l-77.922 77.922c-13.297 13.332-31.685 21.58-52 21.58s-38.703-8.248-51.998-21.579l-0.002-0.002-20.48-21.28c-14.492-14.568-34.553-23.583-56.72-23.583s-42.228 9.016-56.717 23.58l-0.003 0.003-251.2 250.56c-14.568 14.492-23.583 34.553-23.583 56.72s9.016 42.228 23.58 56.717l0.003 0.003z" />
<glyph unicode="&#xe938;" glyph-name="document" d="M544 838.4v-116.16c0.091-80.786 65.602-146.24 146.4-146.24h116c13.117 0.065 23.726 10.713 23.726 23.84 0 6.555-2.645 12.492-6.927 16.802l-238.559 238.719c-4.308 4.28-10.245 6.925-16.8 6.925-13.166 0-23.84-10.674-23.84-23.84 0-0.016 0-0.032 0-0.048v0.002zM864 146.4v315.040c0 27.924-22.636 50.56-50.56 50.56v0h-123.040c-116.201 0-210.4 94.199-210.4 210.4v0 123.040c0 27.924-22.636 50.56-50.56 50.56h-123.040c-80.854 0-146.4-65.546-146.4-146.4v0-603.2c0-80.854 65.546-146.4 146.4-146.4v0h411.2c80.854 0 146.4 65.546 146.4 146.4v0z" />
<glyph unicode="&#xe939;" glyph-name="calendar" d="M894.24 576h-764.48c-36.318 0-65.76-29.442-65.76-65.76v0-366.24c0-79.529 64.471-144 144-144v0h608c79.529 0 144 64.471 144 144v0 366.24c0 36.318-29.442 65.76-65.76 65.76v0zM304 202.4c0-23.417-18.983-42.4-42.4-42.4v0h-11.040c-0.048 0-0.104 0-0.16 0-23.417 0-42.4 18.983-42.4 42.4 0 0 0 0 0 0v0 11.040c0 0.048 0 0.104 0 0.16 0 23.417 18.983 42.4 42.4 42.4 0 0 0 0 0 0h11.040c0.048 0 0.104 0 0.16 0 23.417 0 42.4-18.983 42.4-42.4 0 0 0 0 0 0v0zM304 394.4c0-23.417-18.983-42.4-42.4-42.4v0h-11.040c-0.048 0-0.104 0-0.16 0-23.417 0-42.4 18.983-42.4 42.4 0 0 0 0 0 0v0 11.040c0 0.048 0 0.104 0 0.16 0 23.417 18.983 42.4 42.4 42.4 0 0 0 0 0 0h11.040c0.048 0 0.104 0 0.16 0 23.417 0 42.4-18.983 42.4-42.4 0 0 0 0 0 0v0zM560 202.4c0-23.417-18.983-42.4-42.4-42.4v0h-11.040c-0.048 0-0.104 0-0.16 0-23.417 0-42.4 18.983-42.4 42.4 0 0 0 0 0 0v0 11.040c0 0.048 0 0.104 0 0.16 0 23.417 18.983 42.4 42.4 42.4 0 0 0 0 0 0h11.040c0.048 0 0.104 0 0.16 0 23.417 0 42.4-18.983 42.4-42.4 0 0 0 0 0 0v0zM560 394.4c0-23.417-18.983-42.4-42.4-42.4v0h-11.040c-0.048 0-0.104 0-0.16 0-23.417 0-42.4 18.983-42.4 42.4 0 0 0 0 0 0v0 11.040c0 0.048 0 0.104 0 0.16 0 23.417 18.983 42.4 42.4 42.4 0 0 0 0 0 0h11.040c0.048 0 0.104 0 0.16 0 23.417 0 42.4-18.983 42.4-42.4 0 0 0 0 0 0v0zM816 202.4c0-23.417-18.983-42.4-42.4-42.4v0h-11.040c-0.048 0-0.104 0-0.16 0-23.417 0-42.4 18.983-42.4 42.4 0 0 0 0 0 0v0 11.040c0 0.048 0 0.104 0 0.16 0 23.417 18.983 42.4 42.4 42.4 0 0 0 0 0 0h11.040c0.048 0 0.104 0 0.16 0 23.417 0 42.4-18.983 42.4-42.4 0 0 0 0 0 0v0zM816 394.4c0-23.417-18.983-42.4-42.4-42.4v0h-11.040c-0.048 0-0.104 0-0.16 0-23.417 0-42.4 18.983-42.4 42.4 0 0 0 0 0 0v0 11.040c0 0.048 0 0.104 0 0.16 0 23.417 18.983 42.4 42.4 42.4 0 0 0 0 0 0h11.040c0.048 0 0.104 0 0.16 0 23.417 0 42.4-18.983 42.4-42.4 0 0 0 0 0 0v0zM901.76 832h-69.76c0 35.346-28.654 64-64 64s-64-28.654-64-64v0-32c0-17.673-14.327-32-32-32s-32 14.327-32 32v0 6.56c0 14.050-11.39 25.44-25.44 25.44v0h-294.56c0 35.346-28.654 64-64 64s-64-28.654-64-64v0-32c0-17.673-14.327-32-32-32s-32 14.327-32 32v0 32h-5.76c-32.165 0-58.24-26.075-58.24-58.24v0-101.76c0-17.673 14.327-32 32-32v0h832c17.673 0 32 14.327 32 32v0 101.76c0 32.165-26.075 58.24-58.24 58.24v0z" />
<glyph unicode="&#xe93a;" glyph-name="spinner-click" d="M512 896c-35.346 0-64-28.654-64-64v0-64c0-35.346 28.654-64 64-64s64 28.654 64 64v0 64c0 35.346-28.654 64-64 64v0zM512 192c-35.346 0-64-28.654-64-64v0-64c0-35.346 28.654-64 64-64s64 28.654 64 64v0 64c0 35.346-28.654 64-64 64v0zM738.24 610.24c0.157-0.001 0.342-0.002 0.528-0.002 17.662 0 33.652 7.154 45.232 18.723l45.279 45.279c11.588 11.588 18.756 27.597 18.756 45.28 0 35.366-28.67 64.036-64.036 64.036-17.683 0-33.692-7.167-45.28-18.756v0l-45.76-44.8c-11.597-11.584-18.77-27.594-18.77-45.28 0-35.346 28.654-64 64-64 0.018 0 0.035 0 0.053 0h-0.003zM240 267.040l-44.8-45.28c-11.588-11.588-18.756-27.597-18.756-45.28 0-35.366 28.67-64.036 64.036-64.036 17.683 0 33.692 7.167 45.28 18.756v0l45.28 44.8c11.65 11.65 18.855 27.743 18.855 45.52 0 35.553-28.822 64.375-64.375 64.375-17.777 0-33.87-7.205-45.52-18.855v0zM896 512h-64c-35.346 0-64-28.654-64-64s28.654-64 64-64v0h64c35.346 0 64 28.654 64 64s-28.654 64-64 64v0zM256 448c0 35.346-28.654 64-64 64v0h-64c-35.346 0-64-28.654-64-64s28.654-64 64-64v0h64c35.346 0 64 28.654 64 64v0zM784 267.040c-11.65 11.65-27.743 18.855-45.52 18.855-35.553 0-64.375-28.822-64.375-64.375 0-17.777 7.205-33.87 18.855-45.52v0l45.28-45.28c11.588-11.588 27.597-18.756 45.28-18.756 35.366 0 64.036 28.67 64.036 64.036 0 17.683-7.167 33.692-18.756 45.28v0zM285.76 764.8c-11.588 11.588-27.597 18.756-45.28 18.756-35.366 0-64.036-28.67-64.036-64.036 0-17.683 7.167-33.692 18.756-45.28v0l44.8-45.28c11.65-11.65 27.743-18.855 45.52-18.855 35.553 0 64.375 28.822 64.375 64.375 0 17.777-7.205 33.87-18.855 45.52v0z" />
<glyph unicode="&#xe93b;" glyph-name="envelope" d="M820 704h-616c-77.32 0-140-62.68-140-140v0-424c0-77.32 62.68-140 140-140v0h616c77.32 0 140 62.68 140 140v0 424c0 77.32-62.68 140-140 140v0zM824.32 406.56l-264.32-154.88c-13.903-8.288-30.659-13.187-48.56-13.187s-34.657 4.9-49.002 13.431l0.442-0.243-263.2 154.88c-16.444 7.852-27.603 24.348-27.603 43.451 0 26.51 21.49 48 48 48 10.34 0 19.916-3.269 27.751-8.831l-0.149 0.1 264.32-154.88 263.52 155.040c7.687 5.461 17.263 8.731 27.603 8.731 26.51 0 48-21.49 48-48 0-19.103-11.159-35.599-27.314-43.326l-0.289-0.125z" />
<glyph unicode="&#xe93c;" glyph-name="cancel" d="M512 896c-247.424 0-448-200.576-448-448s200.576-448 448-448c247.424 0 448 200.576 448 448v0c0 247.424-200.576 448-448 448v0zM692.96 357.44c11.588-11.588 18.756-27.597 18.756-45.28 0-35.366-28.67-64.036-64.036-64.036-17.683 0-33.692 7.167-45.28 18.756v0l-90.4 90.56-90.56-90.56c-11.588-11.588-27.597-18.756-45.28-18.756-35.366 0-64.036 28.67-64.036 64.036 0 17.683 7.167 33.692 18.756 45.28v0l90.56 90.56-90.56 90.56c-11.588 11.588-18.756 27.597-18.756 45.28 0 35.366 28.67 64.036 64.036 64.036 17.683 0 33.692-7.167 45.28-18.756l90.56-90.56 90.56 90.56c11.588 11.588 27.597 18.756 45.28 18.756 35.366 0 64.036-28.67 64.036-64.036 0-17.683-7.167-33.692-18.756-45.28v0l-90.56-90.56z" />
<glyph unicode="&#xe93d;" glyph-name="phone-mobile" d="M666.72 896h-309.44c-91.282 0-165.28-73.998-165.28-165.28v0-565.44c0-91.282 73.998-165.28 165.28-165.28v0h309.44c91.282 0 165.28 73.998 165.28 165.28v0 565.44c0 91.282-73.998 165.28-165.28 165.28v0zM512 64c-17.673 0-32 14.327-32 32s14.327 32 32 32c17.673 0 32-14.327 32-32v0c0-17.673-14.327-32-32-32v0zM704 234.72c0-23.594-19.126-42.72-42.72-42.72v0h-298.56c-23.594 0-42.72 19.126-42.72 42.72v0 496c0 20.589 16.691 37.28 37.28 37.28h309.44c20.589 0 37.28-16.691 37.28-37.28v0z" />
<glyph unicode="&#xe93e;" glyph-name="menu" d="M167.040 896h17.92c56.907 0 103.040-46.133 103.040-103.040v-17.92c0-56.907-46.133-103.040-103.040-103.040h-17.92c-56.907 0-103.040 46.133-103.040 103.040v17.92c0 56.907 46.133 103.040 103.040 103.040zM503.040 896h17.92c56.907 0 103.040-46.133 103.040-103.040v-17.92c0-56.907-46.133-103.040-103.040-103.040h-17.92c-56.907 0-103.040 46.133-103.040 103.040v17.92c0 56.907 46.133 103.040 103.040 103.040zM839.040 896h17.92c56.907 0 103.040-46.133 103.040-103.040v-17.92c0-56.907-46.133-103.040-103.040-103.040h-17.92c-56.907 0-103.040 46.133-103.040 103.040v17.92c0 56.907 46.133 103.040 103.040 103.040zM167.040 560h17.92c56.907 0 103.040-46.133 103.040-103.040v-17.92c0-56.907-46.133-103.040-103.040-103.040h-17.92c-56.907 0-103.040 46.133-103.040 103.040v17.92c0 56.907 46.133 103.040 103.040 103.040zM503.040 560h17.92c56.907 0 103.040-46.133 103.040-103.040v-17.92c0-56.907-46.133-103.040-103.040-103.040h-17.92c-56.907 0-103.040 46.133-103.040 103.040v17.92c0 56.907 46.133 103.040 103.040 103.040zM839.040 560h17.92c56.907 0 103.040-46.133 103.040-103.040v-17.92c0-56.907-46.133-103.040-103.040-103.040h-17.92c-56.907 0-103.040 46.133-103.040 103.040v17.92c0 56.907 46.133 103.040 103.040 103.040zM167.040 224h17.92c56.907 0 103.040-46.133 103.040-103.040v-17.92c0-56.907-46.133-103.040-103.040-103.040h-17.92c-56.907 0-103.040 46.133-103.040 103.040v17.92c0 56.907 46.133 103.040 103.040 103.040zM503.040 224h17.92c56.907 0 103.040-46.133 103.040-103.040v-17.92c0-56.907-46.133-103.040-103.040-103.040h-17.92c-56.907 0-103.040 46.133-103.040 103.040v17.92c0 56.907 46.133 103.040 103.040 103.040zM839.040 224h17.92c56.907 0 103.040-46.133 103.040-103.040v-17.92c0-56.907-46.133-103.040-103.040-103.040h-17.92c-56.907 0-103.040 46.133-103.040 103.040v17.92c0 56.907 46.133 103.040 103.040 103.040z" />
<glyph unicode="&#xe93f;" glyph-name="messages" d="M408.32 637.92c-190.24 0-344.32-142.72-344.32-318.88 0.144-72.326 25.656-138.665 68.109-190.622l-0.429 0.542c5.296-6.644 8.498-15.162 8.498-24.428 0-3.778-0.532-7.432-1.526-10.89l0.068 0.278-19.52-71.52c-0.231-0.926-0.363-1.989-0.363-3.083 0-7.334 5.946-13.28 13.28-13.28 1.094 0 2.157 0.132 3.174 0.382l-0.091-0.019 98.24 26.88c3.133 0.863 6.731 1.359 10.444 1.359 6.071 0 11.832-1.326 17.010-3.704l-0.254 0.105c43.377-19.612 94.048-31.040 147.388-31.040 0.103 0 0.206 0 0.309 0h-0.016c190.080 0 343.68 142.88 343.68 319.040s-153.6 318.88-343.68 318.88zM960 576c0 176-154.080 319.040-344.32 319.040-1.077 0.012-2.349 0.019-3.623 0.019-116.002 0-218.856-56.292-282.736-143.050l-0.681-0.969c-3.844-5.356-6.147-12.044-6.147-19.27 0-18.38 14.9-33.28 33.28-33.28 1.377 0 2.734 0.084 4.067 0.246l-0.16-0.016c14.387 1.714 31.068 2.702 47.976 2.72h0.024c225.76 0.48 408.32-171.2 408.32-382.4v0c-0.004-0.228-0.006-0.497-0.006-0.767 0-20.919 13.989-38.572 33.122-44.113l0.324-0.080 38.56-10.56c0.926-0.231 1.989-0.363 3.083-0.363 7.334 0 13.28 5.946 13.28 13.28 0 1.094-0.132 2.157-0.382 3.174l0.019-0.091-19.68 71.68c-0.957 3.205-1.507 6.887-1.507 10.697 0 9.040 3.098 17.356 8.29 23.945l-0.063-0.083c42.51 51.323 68.466 117.703 68.959 190.133l0.001 0.107z" />
<glyph unicode="&#xe940;" glyph-name="clipboard" d="M349.92 896h324.16c34.197 0 61.92-27.723 61.92-61.92v-68.16c0-34.197-27.723-61.92-61.92-61.92h-324.16c-34.197 0-61.92 27.723-61.92 61.92v68.16c0 34.197 27.723 61.92 61.92 61.92zM209.6 832c0 0 0 0-0.001 0-45.066 0-81.6-36.534-81.6-81.6 0-0.113 0-0.225 0.001-0.337v0.017-668.48c0-45.066 36.534-81.6 81.6-81.6v0h604.8c45.066 0 81.6 36.534 81.6 81.6v0 668.48c0 0.095 0.001 0.207 0.001 0.32 0 45.066-36.534 81.6-81.6 81.6 0 0 0 0-0.001 0v0c-7.953 0-14.4-6.447-14.4-14.4v0-51.36c0-0.095 0-0.207 0-0.32 0-69.544-56.376-125.92-125.92-125.92 0 0 0 0 0 0h-324.16c-69.544 0-125.92 56.376-125.92 125.92v0 51.36c0.002 0.095 0.004 0.207 0.004 0.32 0 7.953-6.447 14.4-14.4 14.4-0.001 0-0.003 0-0.004 0v0zM288 484.8c0 15.022 12.178 27.2 27.2 27.2v0h393.6c15.022 0 27.2-12.178 27.2-27.2v0-9.6c0-15.022-12.178-27.2-27.2-27.2v0h-393.6c-15.022 0-27.2 12.178-27.2 27.2v0zM288 356.8c0 15.022 12.178 27.2 27.2 27.2h393.6c15.022 0 27.2-12.178 27.2-27.2v0-9.6c0-15.022-12.178-27.2-27.2-27.2v0h-393.6c-15.022 0-27.2 12.178-27.2 27.2v0zM288 228.8c0 15.022 12.178 27.2 27.2 27.2h265.6c15.022 0 27.2-12.178 27.2-27.2v0-9.6c0-15.022-12.178-27.2-27.2-27.2v0h-265.6c-15.022 0-27.2 12.178-27.2 27.2v0z" />
<glyph unicode="&#xe941;" glyph-name="search-number" d="M960 36.32v17.76c-0.002 23.191-9.42 44.181-24.638 59.358l-75.362 75.362c-4.154 3.962-9.792 6.4-16 6.4s-11.846-2.438-16.009-6.409l0.009 0.009c-1.382-1.348-3.274-2.18-5.36-2.18s-3.978 0.832-5.362 2.181l0.002-0.002-67.68 67.2c-18.851 19.208-30.487 45.554-30.487 74.619 0 18.499 4.714 35.896 13.005 51.057l-0.278-0.556c24.776 47.098 39.317 102.912 39.317 162.123 0 195.465-158.455 353.92-353.92 353.92s-353.92-158.455-353.92-353.92c0-195.465 158.455-353.92 353.92-353.92 59.211 0 115.026 14.54 164.069 40.246l-1.946-0.929c14.448 7.805 31.625 12.392 49.874 12.392 29.137 0 55.542-11.694 74.779-30.645l-0.013 0.013 67.2-66.4c1.386-1.365 2.245-3.262 2.245-5.36s-0.859-3.995-2.244-5.359l-1.601-1.601c-4.195-4.198-6.79-9.996-6.79-16.4s2.595-12.202 6.79-16.4l73.76-73.76c15.079-15.36 36.003-24.936 59.165-25.12h21.155c20.059 0 36.32 16.261 36.32 36.32v0zM705.6 512.8c-15.556-146.654-138.588-259.915-288.075-259.915-159.942 0-289.6 129.658-289.6 289.6 0 149.486 113.26 272.518 258.649 287.965l1.266 0.109c8.58 0.899 18.536 1.412 28.612 1.412 160.472 0 290.56-130.088 290.56-290.56 0-10.076-0.513-20.033-1.514-29.845l0.102 1.232zM864 864c0 17.673-14.327 32-32 32v0h-128c-17.673 0-32-14.327-32-32s14.327-32 32-32v0h128c17.673 0 32 14.327 32 32v0zM96 0h128c17.673 0 32 14.327 32 32s-14.327 32-32 32v0h-128c-17.673 0-32-14.327-32-32s14.327-32 32-32v0zM512 32c0-17.673 14.327-32 32-32v0h128c17.673 0 32 14.327 32 32s-14.327 32-32 32v0h-128c-17.673 0-32-14.327-32-32v0zM960 864c0-17.673-14.327-32-32-32s-32 14.327-32 32c0 17.673 14.327 32 32 32s32-14.327 32-32zM832 736c0-17.673-14.327-32-32-32s-32 14.327-32 32c0 17.673 14.327 32 32 32s32-14.327 32-32zM960 743.36c0 13.608-11.032 24.64-24.64 24.64v0h-39.36c-17.673 0-32-14.327-32-32s14.327-32 32-32v0h39.36c13.608 0 24.64 11.032 24.64 24.64v0zM128 160c0-17.673-14.327-32-32-32s-32 14.327-32 32c0 17.673 14.327 32 32 32s32-14.327 32-32zM231.36 192h-39.36c-17.673 0-32-14.327-32-32s14.327-32 32-32v0h39.36c13.608 0 24.64 11.032 24.64 24.64v0 14.88c-0.091 13.539-11.087 24.48-24.639 24.48 0 0 0 0-0.001 0v0zM647.36 128c13.608 0 24.64 11.032 24.64 24.64v0 14.88c-0.091 13.539-11.087 24.48-24.639 24.48 0 0 0 0-0.001 0h-39.36c-17.673 0-32-14.327-32-32s14.327-32 32-32v0zM352 32c0-17.673-14.327-32-32-32s-32 14.327-32 32c0 17.673 14.327 32 32 32s32-14.327 32-32zM455.36 0c13.608 0 24.64 11.032 24.64 24.64v0 14.88c-0.091 13.539-11.087 24.48-24.639 24.48 0 0 0 0-0.001 0h-39.36c-17.673 0-32-14.327-32-32s14.327-32 32-32v0zM960 352c0-17.673-14.327-32-32-32s-32 14.327-32 32c0 17.673 14.327 32 32 32s32-14.327 32-32zM768 359.36v-14.88c0.091-13.539 11.087-24.48 24.639-24.48 0 0 0 0 0.001 0h39.36c17.673 0 32 14.327 32 32s-14.327 32-32 32v0h-39.36c-13.608 0-24.64-11.032-24.64-24.64v0zM928 640h-64c-17.673 0-32-14.327-32-32s14.327-32 32-32v0h64c17.673 0 32 14.327 32 32s-14.327 32-32 32v0zM928 480c0-17.673-14.327-32-32-32s-32 14.327-32 32c0 17.673 14.327 32 32 32s32-14.327 32-32zM400 672h-96c-26.51 0-48-21.49-48-48v0-160c0-26.51 21.49-48 48-48v0h96c26.51 0 48 21.49 48 48v0 160c0 26.51-21.49 48-48 48v0zM384 480h-64v128h64zM480 640c0-17.673 14.327-32 32-32v0-160c0-17.673 14.327-32 32-32s32 14.327 32 32v0 224h-64c-17.673 0-32-14.327-32-32v0z" />
</font>
</defs>
</svg>
